<svg xmlns="http://www.w3.org/2000/svg" xmlns:xlink="http://www.w3.org/1999/xlink" width="800" zoomAndPan="magnify" viewBox="0 0 600 599.999999" height="800" preserveAspectRatio="xMidYMid meet" version="1.0"><defs><clipPath id="ac9abfce3c"><path d="M 123 133 L 455 133 L 455 558.738281 L 123 558.738281 Z M 123 133 " clip-rule="nonzero"/></clipPath><clipPath id="de7297f79c"><path d="M 276.339844 41.238281 L 487.0625 41.238281 L 487.0625 267.902344 L 276.339844 267.902344 Z M 276.339844 41.238281 " clip-rule="nonzero"/></clipPath><clipPath id="29adf8f716"><path d="M 314 41.238281 L 450 41.238281 L 450 132 L 314 132 Z M 314 41.238281 " clip-rule="nonzero"/></clipPath></defs><g clip-path="url(#ac9abfce3c)"><path fill="#fbe1c8" d="M 287.722656 532.140625 L 287.722656 382.789062 L 267.542969 381.445312 L 265.367188 532.035156 C 228.316406 532.96875 199.855469 538.558594 199.855469 545.285156 C 199.855469 552.734375 234.007812 558.738281 276.234375 558.738281 C 318.464844 558.738281 352.617188 552.734375 352.617188 545.285156 C 352.722656 538.660156 324.570312 533.070312 287.722656 532.140625 Z M 438.210938 181.480469 C 427.242188 185.933594 415.546875 188.519531 403.953125 190.796875 C 339.472656 203.007812 270.75 203.007812 205.648438 195.765625 C 197.574219 194.832031 137.652344 188.210938 123.160156 172.789062 C 126.265625 183.757812 131.753906 197.628906 141.683594 211.496094 C 158.351562 234.679688 171.492188 232.921875 185.464844 250.308594 C 210.824219 281.773438 186.089844 308.476562 208.960938 343.5625 C 224.179688 366.953125 252.742188 382.375 280.996094 382.6875 C 285.65625 382.789062 317.636719 382.6875 340.714844 359.707031 C 372.699219 327.832031 364.417969 283.429688 387.496094 257.242188 C 401.574219 241.203125 409.234375 241.203125 425.273438 220.398438 C 438.109375 203.835938 446.078125 187.382812 451.148438 174.132812 C 447.527344 177.546875 442.765625 179.722656 438.210938 181.480469 Z M 125.957031 158.089844 C 143.449219 143.808594 209.273438 133.148438 287.722656 133.148438 C 379.632812 133.148438 454.152344 147.742188 454.152344 165.75 C 454.152344 166.785156 453.945312 167.714844 453.425781 168.75 C 452.703125 168.441406 451.769531 168.542969 451.148438 169.269531 C 442.972656 180.238281 422.6875 183.34375 410.371094 186.035156 C 384.808594 191.519531 358.519531 194.003906 332.4375 195.453125 C 276.546875 198.558594 217.863281 197.835938 163.007812 185.621094 C 155.453125 183.964844 112.917969 175.167969 125.75 160.367188 C 126.578125 159.644531 126.371094 158.710938 125.953125 158.089844 " fill-opacity="1" fill-rule="nonzero"/></g><path fill="#ed7e84" d="M 373.316406 260.453125 C 360.277344 266.871094 325.605469 271.214844 287 271.214844 C 250.257812 271.214844 217.140625 267.386719 202.648438 261.28125 C 201.820312 260.96875 201.410156 259.933594 201.714844 259.105469 C 202.027344 258.277344 203.0625 257.863281 203.890625 258.175781 C 217.96875 263.972656 250.570312 267.800781 286.898438 267.800781 C 324.984375 267.800781 359.035156 263.660156 371.664062 257.347656 C 372.492188 256.933594 373.523438 257.242188 373.9375 258.070312 C 374.457031 259.105469 374.144531 260.039062 373.316406 260.453125 Z M 287.3125 237.578125 C 237.113281 237.578125 196.539062 244.71875 196.539062 253.519531 C 196.539062 254.347656 196.957031 255.171875 197.574219 256 C 199.234375 259.933594 201.304688 265.316406 202.960938 271.734375 C 206.890625 286.222656 206.371094 295.226562 207.40625 304.027344 C 207.617188 305.578125 210.722656 330.417969 225.730469 348.945312 C 241.769531 368.714844 265.574219 374.09375 276.648438 375.648438 C 303.972656 376.371094 319.707031 366.125 325.914062 361.363281 C 344.027344 347.597656 351.582031 326.589844 356.757812 311.890625 C 360.898438 300.300781 362.761719 290.363281 371.25 269.351562 C 373.421875 263.972656 375.386719 259.519531 376.941406 256 C 377.664062 255.171875 378.078125 254.347656 378.078125 253.414062 C 378.078125 244.824219 337.402344 237.578125 287.3125 237.578125 " fill-opacity="1" fill-rule="nonzero"/><path fill="#fbe1c8" d="M 314.011719 343.253906 C 312.460938 344.703125 311.011719 346.148438 309.667969 347.703125 C 308.425781 349.046875 306.769531 350.394531 306.664062 352.257812 C 306.664062 353.1875 307.492188 353.707031 308.320312 353.5 C 310.183594 353.085938 311.324219 350.910156 312.355469 349.566406 C 313.597656 348.011719 314.738281 346.355469 315.875 344.703125 C 316.601562 343.5625 314.945312 342.320312 314.011719 343.253906 Z M 335.75 294.296875 C 333.886719 301.75 332.125 309.40625 328.503906 316.238281 C 325.707031 321.414062 320.84375 325.96875 320.015625 331.972656 C 319.808594 333.210938 321.464844 334.660156 322.5 333.417969 C 331.710938 322.242188 335.644531 308.683594 336.886719 294.503906 C 336.988281 293.777344 335.957031 293.675781 335.75 294.296875 Z M 348.273438 253.828125 C 342.0625 256.207031 334.816406 254.347656 328.710938 256.933594 C 326.949219 257.65625 327.882812 260.554688 329.640625 260.554688 C 333.058594 260.347656 336.574219 259.105469 339.886719 258.382812 C 342.992188 257.65625 345.996094 256.828125 348.890625 255.378906 C 349.71875 254.964844 349.203125 253.519531 348.273438 253.828125 Z M 262.78125 246.6875 C 263.917969 246.6875 263.917969 248.34375 262.78125 248.445312 C 251.1875 249.273438 239.597656 251.757812 229.558594 257.761719 C 227.175781 259.210938 225.109375 255.585938 227.382812 254.035156 C 238.148438 246.894531 250.363281 246.066406 262.78125 246.6875 " fill-opacity="1" fill-rule="nonzero"/><g clip-path="url(#de7297f79c)"><path fill="#73a892" d="M 348.683594 55.625 C 349.410156 55.523438 350.132812 55.316406 350.859375 55.210938 C 368.765625 51.695312 384.496094 46.933594 397.742188 41.960938 C 398.054688 41.863281 398.46875 41.757812 398.777344 41.550781 C 399.089844 41.445312 399.296875 41.34375 399.605469 41.238281 L 399.605469 41.34375 L 400.332031 42.792969 C 400.640625 43.414062 400.953125 44.136719 401.367188 44.757812 C 401.367188 44.863281 401.367188 44.863281 401.46875 44.96875 C 404.160156 50.347656 407.472656 56.246094 411.199219 62.351562 C 415.027344 68.460938 419.375 74.769531 424.550781 81.085938 C 446.078125 108.203125 470.402344 124.246094 487.0625 133.148438 C 476.609375 133.25 463.878906 132.835938 449.492188 131.390625 C 445.457031 130.972656 441.316406 130.453125 437.074219 129.835938 C 419.789062 127.351562 400.433594 123.210938 379.941406 116.480469 C 378.285156 115.964844 376.628906 115.445312 374.972656 114.828125 C 374.664062 114.722656 374.457031 114.617188 374.144531 114.519531 C 371.457031 120.933594 368.765625 127.25 366.074219 133.664062 C 347.339844 177.859375 328.605469 222.15625 309.976562 266.351562 C 309.148438 268.320312 305.628906 267.492188 306.5625 265.421875 C 309.253906 259.003906 312.046875 252.585938 314.738281 246.167969 C 333.472656 201.976562 352.203125 157.675781 370.835938 113.484375 C 370.835938 113.378906 370.9375 113.378906 370.9375 113.277344 C 351.480469 106.238281 334.402344 97.957031 319.707031 89.574219 L 314.21875 86.367188 C 298.800781 77.152344 286.171875 68.042969 276.441406 60.179688 C 295.796875 61.316406 320.535156 60.800781 348.683594 55.625 " fill-opacity="1" fill-rule="nonzero"/></g><g clip-path="url(#29adf8f716)"><path fill="#ffffff" d="M 357.070312 69.808594 C 371.871094 62.769531 385.632812 54.070312 397.539062 42.066406 L 398.570312 42.378906 L 398.570312 41.652344 C 398.882812 41.550781 399.089844 41.445312 399.398438 41.34375 L 399.398438 41.445312 L 401.054688 44.96875 C 401.054688 45.066406 401.054688 45.066406 401.160156 45.171875 C 402.816406 62.457031 408.300781 79.84375 416.890625 94.851562 C 421.652344 103.234375 427.242188 110.996094 433.867188 118.035156 C 438.625 122.691406 444.734375 126.625 449.492188 131.390625 C 445.457031 130.972656 441.316406 130.453125 437.074219 129.835938 C 433.660156 126.625 430.554688 123.003906 427.964844 120.105469 C 421.550781 112.859375 416.0625 104.890625 411.613281 96.300781 C 404.058594 81.808594 399.917969 66.800781 398.882812 50.964844 C 391.015625 72.394531 383.875 93.917969 379.839844 116.484375 C 378.183594 115.964844 376.527344 115.449219 374.871094 114.828125 C 378.597656 91.125 387.394531 68.460938 397.125 46.519531 C 387.394531 57.800781 375.285156 66.390625 361.933594 73.21875 C 348.375 80.15625 333.78125 85.332031 319.5 89.679688 L 314.011719 86.46875 C 328.8125 81.5 343.40625 76.429688 357.070312 69.808594 " fill-opacity="1" fill-rule="nonzero"/></g></svg>