<svg xmlns="http://www.w3.org/2000/svg" xmlns:xlink="http://www.w3.org/1999/xlink" width="800" zoomAndPan="magnify" viewBox="0 0 600 599.999999" height="800" preserveAspectRatio="xMidYMid meet" version="1.0"><defs><clipPath id="06d89a86d8"><path d="M 64.398438 89 L 535 89 L 535 569.101562 L 64.398438 569.101562 Z M 64.398438 89 " clip-rule="nonzero"/></clipPath><clipPath id="259e36f33b"><path d="M 300 30.601562 L 375 30.601562 L 375 105 L 300 105 Z M 300 30.601562 " clip-rule="nonzero"/></clipPath><clipPath id="8cf71c3aab"><path d="M 65 133 L 534 133 L 534 569.101562 L 65 569.101562 Z M 65 133 " clip-rule="nonzero"/></clipPath><clipPath id="24308056db"><path d="M 155 30.601562 L 447 30.601562 L 447 518 L 155 518 Z M 155 30.601562 " clip-rule="nonzero"/></clipPath></defs><g clip-path="url(#06d89a86d8)"><path fill="#e2b96a" d="M 534.71875 233.941406 C 534.484375 233.394531 533.847656 233.144531 533.304688 233.378906 L 532.375 233.78125 L 405.378906 178.980469 C 405.644531 178.144531 405.632812 177.21875 405.257812 176.351562 C 404.429688 174.441406 402.210938 173.566406 400.300781 174.394531 L 397.535156 175.59375 L 299.855469 133.445312 L 297.335938 134.53125 C 291.761719 120.398438 283.828125 108.335938 273.90625 100.121094 C 258.492188 87.355469 240.066406 85.582031 222.019531 95.125 C 205.984375 103.609375 197.796875 119.25 199.558594 138.042969 C 200.539062 148.46875 204.730469 159.917969 212.242188 171.253906 L 162.34375 192.785156 C 162.132812 192.585938 161.921875 192.398438 161.710938 192.199219 C 160.195312 190.769531 157.8125 190.839844 156.386719 192.355469 C 155.496094 193.300781 155.1875 194.582031 155.449219 195.757812 L 67.335938 233.785156 L 66.40625 233.382812 C 65.855469 233.144531 65.226562 233.398438 64.988281 233.945312 C 64.753906 234.488281 65.007812 235.121094 65.550781 235.359375 L 65.976562 235.542969 L 65.976562 400.207031 C 65.585938 403.0625 65.476562 405.980469 65.683594 408.921875 C 65.746094 409.851562 65.855469 410.769531 65.976562 411.679688 L 65.976562 468.21875 L 168.890625 512.628906 L 168.917969 514.246094 C 168.949219 516.308594 170.628906 517.957031 172.683594 517.957031 C 172.703125 517.957031 172.722656 517.957031 172.742188 517.957031 C 174.246094 517.933594 175.519531 517.023438 176.105469 515.742188 L 299.855469 569.140625 L 533.730469 468.21875 L 533.730469 414.976562 C 533.78125 414.492188 533.835938 414.007812 533.867188 413.519531 C 534.042969 411.027344 533.988281 408.554688 533.730469 406.121094 L 533.730469 235.542969 L 534.15625 235.355469 C 534.703125 235.121094 534.957031 234.488281 534.71875 233.941406 Z M 207.0625 137.335938 C 205.578125 121.5 212.140625 108.875 225.542969 101.785156 C 232.113281 98.308594 238.621094 96.578125 244.941406 96.578125 C 253.433594 96.578125 261.589844 99.703125 269.097656 105.921875 C 278.167969 113.433594 285.417969 124.484375 290.527344 137.46875 L 219.195312 168.25 C 211.972656 157.675781 207.96875 147.015625 207.0625 137.335938 Z M 207.0625 137.335938 " fill-opacity="1" fill-rule="nonzero"/></g><path fill="#e2b96a" d="M 381.984375 112.464844 L 385.699219 132.316406 L 389.414062 112.464844 L 409.269531 108.75 L 389.414062 105.035156 L 385.699219 85.183594 L 381.984375 105.035156 L 362.132812 108.75 Z M 381.984375 112.464844 " fill-opacity="1" fill-rule="nonzero"/><g clip-path="url(#259e36f33b)"><path fill="#e2b96a" d="M 337.320312 104.257812 L 343.125 73.230469 L 374.152344 67.425781 L 343.125 61.625 L 337.320312 30.601562 L 331.515625 61.625 L 300.488281 67.425781 L 331.515625 73.230469 Z M 337.320312 104.257812 " fill-opacity="1" fill-rule="nonzero"/></g><g clip-path="url(#8cf71c3aab)"><path fill="#73a892" d="M 284.046875 467.996094 C 283.734375 468.257812 283.414062 468.519531 283.097656 468.777344 C 282.980469 468.515625 282.863281 468.253906 282.742188 467.996094 Z M 248.441406 487.070312 C 261.808594 491.113281 275.949219 489.792969 289.113281 485.691406 C 288.871094 483.347656 288.476562 481.011719 288.097656 478.714844 C 287.554688 475.464844 286.902344 472.230469 286.167969 469.015625 C 275.566406 478.050781 262.371094 485.949219 248.277344 487.015625 C 248.332031 487.03125 248.382812 487.054688 248.441406 487.070312 Z M 253.828125 467.996094 L 243.402344 467.996094 C 247.40625 471.714844 252.746094 474.328125 258.1875 476.027344 C 258.847656 475.507812 259.472656 474.964844 260.070312 474.40625 C 257.914062 472.640625 255.707031 470.4375 253.828125 467.996094 Z M 233.078125 499.667969 C 241.082031 506.617188 251.304688 510.039062 261.878906 509.296875 C 272.5625 508.546875 281.960938 503.605469 288.605469 496.203125 C 289.308594 493.472656 289.445312 490.683594 289.289062 487.886719 C 275.234375 492.199219 260.015625 493.351562 245.917969 488.515625 C 244.710938 488.101562 243.523438 487.597656 242.347656 487.046875 C 242.328125 487.046875 242.308594 487.046875 242.289062 487.046875 C 241.949219 487.023438 241.695312 486.871094 241.523438 486.664062 C 231.582031 481.738281 223.222656 472.246094 220.285156 461.480469 C 219.53125 465.054688 219.261719 468.753906 219.523438 472.496094 C 220.265625 483.070312 225.078125 492.71875 233.078125 499.667969 Z M 281.378906 470.167969 C 281.050781 469.4375 280.714844 468.710938 280.351562 467.996094 L 267.660156 467.996094 C 266.234375 470.554688 264.503906 472.929688 262.410156 475.070312 C 262.351562 475.144531 262.289062 475.210938 262.214844 475.269531 C 261.714844 475.769531 261.199219 476.261719 260.660156 476.738281 C 263.542969 477.496094 266.402344 478.007812 269.050781 478.304688 C 273.40625 475.96875 277.539062 473.179688 281.378906 470.167969 Z M 265.210938 467.996094 L 256.785156 467.996094 C 258.222656 469.777344 259.835938 471.433594 261.601562 472.867188 C 262.984375 471.359375 264.175781 469.722656 265.210938 467.996094 Z M 313.941406 471.253906 C 314.761719 471.96875 315.601562 472.675781 316.453125 473.375 C 317.289062 471.535156 318.230469 469.742188 319.277344 467.996094 L 314.769531 467.996094 C 314.476562 469.078125 314.207031 470.164062 313.941406 471.253906 Z M 332.027344 467.996094 C 333.472656 471.457031 335.390625 474.667969 337.949219 477.464844 C 340.421875 475.457031 342.578125 473 344.410156 470.417969 C 344.722656 469.980469 345.039062 469.519531 345.351562 469.050781 C 344.828125 468.675781 344.289062 468.324219 343.730469 467.996094 Z M 339.480469 479 C 340.078125 479.5625 340.707031 480.105469 341.367188 480.625 C 347.632812 478.664062 353.761719 475.503906 357.871094 470.824219 C 357.835938 470.789062 357.796875 470.753906 357.765625 470.710938 C 357.042969 469.769531 356.277344 468.867188 355.480469 467.996094 L 348.644531 467.996094 C 346.507812 472.261719 342.925781 476.179688 339.480469 479 Z M 238.3125 465.40625 C 237.496094 464.21875 236.789062 462.953125 236.214844 461.605469 C 234.421875 466.761719 233.304688 472.1875 232.519531 477.589844 C 235.542969 480.660156 238.949219 483.085938 242.808594 484.90625 C 250.765625 485.34375 258.503906 483.359375 265.710938 479.988281 C 263.332031 479.589844 260.871094 479.035156 258.417969 478.308594 C 258.285156 478.304688 258.160156 478.261719 258.046875 478.199219 C 251.394531 476.179688 244.867188 472.890625 240.378906 467.996094 L 238.3125 467.996094 Z M 312.457031 468.300781 C 312.484375 468.199219 312.515625 468.097656 312.542969 467.996094 L 301.28125 467.996094 C 301.121094 469.015625 300.996094 470.050781 300.910156 471.09375 C 300.890625 471.714844 300.851562 472.335938 300.804688 472.953125 C 300.492188 482 303.257812 490.503906 308.199219 497.394531 C 307.84375 493.335938 308.382812 489.234375 308.996094 485.171875 C 309.851562 479.492188 311.007812 473.859375 312.457031 468.300781 Z M 321.804688 467.996094 C 320.421875 470.171875 319.210938 472.4375 318.175781 474.765625 C 322.011719 477.773438 326.148438 480.566406 330.5 482.902344 C 333.148438 482.605469 336.007812 482.09375 338.894531 481.332031 C 338.355469 480.859375 337.839844 480.367188 337.339844 479.867188 C 337.265625 479.808594 337.199219 479.742188 337.144531 479.667969 C 333.839844 476.285156 331.441406 472.328125 329.722656 467.996094 Z M 298.660156 472.824219 C 298.675781 472.347656 298.6875 471.871094 298.722656 471.386719 C 298.734375 471.25 298.75 471.109375 298.761719 470.96875 C 298.792969 469.988281 298.773438 468.992188 298.730469 467.996094 L 288.152344 467.996094 C 289.15625 472.316406 289.984375 476.675781 290.632812 481.0625 C 291.210938 484.972656 291.691406 488.90625 291.347656 492.804688 C 295.472656 487.058594 298.085938 480.191406 298.660156 472.824219 Z M 359.980469 467.996094 L 358.3125 467.996094 C 358.625 468.367188 358.925781 468.746094 359.222656 469.128906 C 359.488281 468.761719 359.738281 468.382812 359.980469 467.996094 Z M 184.226562 442.542969 C 180.847656 439.777344 177.332031 435.953125 175.183594 431.785156 L 175.332031 441.382812 C 177.578125 442.496094 179.949219 443.417969 182.339844 444.164062 C 183 443.644531 183.625 443.101562 184.226562 442.542969 Z M 186.035156 477.433594 C 196.714844 476.683594 206.117188 471.742188 212.757812 464.339844 C 213.460938 461.613281 213.601562 458.820312 213.445312 456.023438 C 201.203125 459.78125 188.085938 461.140625 175.589844 458.234375 L 175.875 476.847656 C 179.183594 477.464844 182.589844 477.675781 186.035156 477.433594 Z M 174.835938 409.167969 L 175.046875 423.003906 C 179.230469 420.277344 183.871094 418.269531 188.8125 417.113281 C 184.539062 413.769531 179.8125 411.050781 174.835938 409.167969 Z M 182.570312 446.449219 C 182.4375 446.441406 182.3125 446.402344 182.199219 446.335938 C 179.878906 445.632812 177.578125 444.777344 175.367188 443.75 L 175.503906 452.628906 C 180.453125 451.871094 185.269531 450.277344 189.867188 448.128906 C 187.484375 447.726562 185.023438 447.171875 182.570312 446.449219 Z M 187.351562 398.394531 C 186.019531 398.261719 184.671875 398.183594 183.316406 398.183594 C 182.375 398.183594 181.429688 398.214844 180.480469 398.28125 C 178.511719 398.421875 176.574219 398.703125 174.679688 399.117188 L 174.789062 406.101562 C 176.242188 405.011719 177.738281 403.976562 179.269531 402.984375 C 181.769531 401.371094 184.488281 399.609375 187.351562 398.394531 Z M 213.265625 453.828125 C 213.023438 451.484375 212.632812 449.148438 212.25 446.851562 C 211.710938 443.601562 211.058594 440.367188 210.320312 437.15625 C 200.5 445.519531 188.457031 452.914062 175.539062 454.804688 L 175.554688 456.003906 C 188.039062 459.035156 201.070312 457.628906 213.265625 453.828125 Z M 205.53125 438.304688 C 203.246094 433.179688 200.074219 428.363281 196.25 424.089844 C 194.628906 431.335938 191.683594 437.96875 186.5625 443.210938 C 186.503906 443.285156 186.441406 443.347656 186.371094 443.40625 C 185.871094 443.910156 185.351562 444.398438 184.8125 444.875 C 187.699219 445.632812 190.558594 446.144531 193.203125 446.441406 C 197.558594 444.105469 201.695312 441.316406 205.53125 438.304688 Z M 222.835938 435.082031 C 222.09375 424.511719 217.28125 414.859375 209.277344 407.910156 C 206.511719 405.507812 203.476562 403.527344 200.253906 401.996094 C 204.847656 411.574219 208.5625 421.558594 211.246094 431.84375 C 212.738281 437.558594 213.917969 443.355469 214.78125 449.199219 C 215.359375 453.109375 215.84375 457.042969 215.5 460.941406 C 220.703125 453.6875 223.507812 444.65625 222.835938 435.082031 Z M 209.769531 434.792969 C 209.496094 433.679688 209.214844 432.570312 208.917969 431.460938 C 206.078125 420.84375 202.148438 410.554688 197.253906 400.714844 C 195.578125 400.085938 193.863281 399.566406 192.117188 399.167969 C 187.515625 399.796875 182.929688 403.105469 179.167969 405.625 C 178.253906 406.238281 177.355469 406.871094 176.476562 407.523438 C 189.773438 412.882812 201.328125 423.847656 207.25 436.914062 C 208.105469 436.214844 208.945312 435.507812 209.769531 434.792969 Z M 229.152344 443.699219 C 225.71875 447.652344 223.148438 452.148438 221.515625 456.964844 C 222.421875 463.332031 225.730469 469.414062 229.679688 474.40625 C 229.996094 474.808594 230.332031 475.175781 230.660156 475.558594 C 231.59375 469.652344 232.972656 463.773438 235.1875 458.257812 C 235.210938 458.082031 235.277344 457.933594 235.378906 457.804688 C 236.230469 455.734375 237.203125 453.714844 238.3125 451.769531 L 238.3125 435.914062 C 234.925781 438.003906 231.835938 440.609375 229.152344 443.699219 Z M 194.457031 422.175781 C 193.328125 421.027344 192.160156 419.914062 190.941406 418.863281 C 185.292969 419.964844 179.972656 422.195312 175.296875 425.398438 C 175.3125 425.457031 175.339844 425.503906 175.347656 425.566406 C 175.542969 427.375 176.289062 429.121094 177.222656 430.757812 C 181.9375 427.492188 187.796875 425.769531 193.53125 426.105469 C 193.882812 424.816406 194.191406 423.503906 194.457031 422.175781 Z M 185.757812 441.003906 C 189.109375 437.34375 191.363281 432.96875 192.894531 428.25 C 187.785156 428.097656 182.527344 429.625 178.355469 432.589844 C 178.667969 433.058594 178.984375 433.519531 179.296875 433.960938 C 181.121094 436.542969 183.285156 439 185.757812 441.003906 Z M 238.3125 456.410156 C 237.992188 457.097656 237.6875 457.796875 237.398438 458.496094 C 237.644531 459.371094 237.953125 460.210938 238.3125 461.019531 Z M 192.410156 397.03125 C 192.496094 397.039062 192.582031 397.050781 192.65625 397.082031 C 199.257812 398.59375 205.433594 401.714844 210.691406 406.285156 C 219.125 413.613281 224.199219 423.785156 224.984375 434.929688 C 225.269531 439.011719 224.945312 443 224.109375 446.808594 C 225.140625 445.242188 226.273438 443.726562 227.523438 442.289062 C 230.648438 438.691406 234.296875 435.710938 238.3125 433.410156 L 238.3125 310.117188 L 238.425781 309.957031 L 172.871094 281.667969 L 174.644531 396.929688 C 176.503906 396.542969 178.402344 396.273438 180.328125 396.136719 C 184.4375 395.847656 188.496094 396.160156 192.410156 397.03125 Z M 500.855469 381.761719 C 500.816406 381.78125 500.792969 381.8125 500.75 381.828125 C 495.703125 383.710938 490.914062 386.460938 486.585938 389.847656 C 496.238281 392.101562 504.761719 397.601562 510.917969 405.402344 C 512.214844 403.59375 513.222656 401.578125 513.851562 399.351562 C 512.164062 395.269531 509.992188 391.398438 507.132812 387.921875 C 505.25 385.628906 503.132812 383.605469 500.855469 381.761719 Z M 478.125 373.488281 C 473.238281 383.316406 469.316406 393.589844 466.480469 404.195312 C 466.183594 405.300781 465.90625 406.414062 465.632812 407.527344 C 466.453125 408.242188 467.292969 408.949219 468.148438 409.648438 C 474.070312 396.578125 485.625 385.617188 498.921875 380.257812 C 497.949219 379.535156 496.953125 378.839844 495.9375 378.164062 C 492.265625 375.726562 487.816406 372.546875 483.339844 371.914062 C 481.554688 372.320312 479.816406 372.847656 478.125 373.488281 Z M 462.636719 437.074219 C 469.28125 444.476562 478.683594 449.417969 489.363281 450.167969 C 490.300781 450.234375 491.238281 450.265625 492.167969 450.265625 C 512.792969 450.265625 530.253906 434.25 531.722656 413.367188 C 531.984375 409.625 531.714844 405.925781 530.960938 402.351562 C 528.019531 413.117188 519.664062 422.609375 509.71875 427.535156 C 509.546875 427.746094 509.292969 427.894531 508.953125 427.917969 C 508.9375 427.917969 508.917969 427.917969 508.898438 427.921875 C 507.722656 428.46875 506.535156 428.976562 505.324219 429.390625 C 491.226562 434.222656 476.011719 433.074219 461.957031 428.761719 C 461.800781 431.554688 461.9375 434.339844 462.636719 437.074219 Z M 452.5625 407.816406 C 451.890625 417.390625 454.691406 426.421875 459.890625 433.671875 C 459.535156 429.609375 460.074219 425.507812 460.6875 421.445312 C 461.542969 415.765625 462.699219 410.132812 464.152344 404.574219 C 466.832031 394.308594 470.539062 384.339844 475.117188 374.777344 C 462.632812 380.734375 453.597656 393.054688 452.5625 407.816406 Z M 494.917969 371.015625 C 493.980469 370.949219 493.042969 370.917969 492.117188 370.917969 C 490.746094 370.917969 489.390625 370.992188 488.054688 371.132812 C 490.917969 372.34375 493.632812 374.101562 496.128906 375.71875 C 500.542969 378.574219 504.722656 381.769531 508.148438 385.789062 C 511.46875 389.6875 513.957031 394.046875 515.859375 398.667969 C 515.964844 398.800781 516.035156 398.957031 516.058594 399.136719 C 518.269531 404.648438 519.648438 410.523438 520.585938 416.433594 C 520.910156 416.046875 521.25 415.679688 521.566406 415.277344 C 525.511719 410.277344 528.824219 404.207031 529.730469 397.832031 C 528.097656 393.019531 525.527344 388.523438 522.09375 384.570312 C 515.140625 376.574219 505.492188 371.757812 494.917969 371.015625 Z M 433.71875 438.960938 C 433.679688 438.925781 433.644531 438.890625 433.609375 438.847656 C 431.445312 436.023438 428.9375 433.53125 426.167969 431.390625 C 424.988281 437.410156 420.019531 443.292969 415.328125 447.140625 C 415.925781 447.699219 416.550781 448.242188 417.210938 448.761719 C 423.476562 446.800781 429.605469 443.640625 433.71875 438.960938 Z M 421.199219 437.1875 C 417.03125 434.222656 411.769531 432.695312 406.660156 432.847656 C 408.191406 437.566406 410.445312 441.941406 413.796875 445.601562 C 416.269531 443.59375 418.421875 441.140625 420.257812 438.554688 C 420.570312 438.117188 420.886719 437.65625 421.199219 437.1875 Z M 361.394531 465.265625 C 361.691406 464.5625 361.945312 463.832031 362.15625 463.078125 C 361.914062 462.492188 361.660156 461.90625 361.394531 461.328125 Z M 509.5625 407.101562 C 509.527344 407.0625 509.488281 407.027344 509.457031 406.984375 C 507.292969 404.160156 504.78125 401.667969 502.015625 399.53125 C 500.835938 405.550781 495.867188 411.433594 491.171875 415.277344 C 491.769531 415.839844 492.398438 416.378906 493.058594 416.898438 C 499.324219 414.941406 505.453125 411.777344 509.5625 407.101562 Z M 497.046875 405.324219 C 492.875 402.359375 487.613281 400.832031 482.503906 400.984375 C 484.039062 405.703125 486.292969 410.078125 489.644531 413.738281 C 492.117188 411.730469 494.269531 409.277344 496.105469 406.691406 C 496.417969 406.253906 496.734375 405.792969 497.046875 405.324219 Z M 480.941406 394.910156 C 481.203125 396.238281 481.515625 397.546875 481.871094 398.839844 C 487.601562 398.503906 493.464844 400.226562 498.179688 403.496094 C 499.113281 401.859375 499.855469 400.109375 500.050781 398.300781 C 500.058594 398.238281 500.089844 398.191406 500.101562 398.132812 C 495.429688 394.929688 490.105469 392.699219 484.460938 391.597656 C 483.238281 392.648438 482.070312 393.761719 480.941406 394.910156 Z M 469.867188 411.039062 C 473.703125 414.050781 477.839844 416.839844 482.195312 419.175781 C 484.839844 418.878906 487.699219 418.367188 490.585938 417.609375 C 490.046875 417.132812 489.53125 416.644531 489.03125 416.140625 C 488.957031 416.085938 488.890625 416.019531 488.835938 415.941406 C 483.714844 410.703125 480.769531 404.066406 479.144531 396.824219 C 475.324219 401.09375 472.152344 405.910156 469.867188 411.039062 Z M 508.4375 425.777344 C 512.296875 423.960938 515.703125 421.53125 518.726562 418.460938 C 517.941406 413.066406 516.828125 407.628906 515.035156 402.464844 C 511.386719 411.039062 502.414062 416.273438 493.199219 419.070312 C 493.085938 419.136719 492.960938 419.175781 492.828125 419.179688 C 490.375 419.90625 487.910156 420.464844 485.53125 420.859375 C 492.738281 424.230469 500.480469 426.214844 508.4375 425.777344 Z M 463.070312 420.074219 C 462.71875 422.214844 462.363281 424.386719 462.136719 426.5625 C 475.300781 430.664062 489.4375 431.984375 502.804688 427.941406 C 502.859375 427.921875 502.910156 427.902344 502.96875 427.882812 C 488.875 426.820312 475.683594 418.917969 465.078125 409.890625 C 464.304688 413.261719 463.625 416.65625 463.070312 420.074219 Z M 432.589844 457.640625 C 436.449219 455.824219 439.859375 453.394531 442.878906 450.324219 C 442.09375 444.929688 440.980469 439.492188 439.1875 434.328125 C 435.542969 442.902344 426.566406 448.136719 417.351562 450.933594 C 417.238281 451 417.113281 451.039062 416.980469 451.042969 C 414.527344 451.769531 412.066406 452.328125 409.6875 452.722656 C 416.894531 456.09375 424.632812 458.078125 432.589844 457.640625 Z M 341.503906 482.792969 C 341.394531 482.859375 341.269531 482.898438 341.136719 482.90625 C 338.683594 483.632812 336.21875 484.1875 333.839844 484.585938 C 341.046875 487.957031 348.785156 489.941406 356.746094 489.503906 C 360.601562 487.683594 364.011719 485.257812 367.035156 482.1875 C 366.246094 476.792969 365.132812 471.355469 363.339844 466.191406 C 359.695312 474.761719 350.722656 480 341.503906 482.792969 Z M 311.375 483.796875 C 311.027344 485.941406 310.671875 488.113281 310.445312 490.289062 C 323.609375 494.390625 337.742188 495.710938 351.109375 491.667969 C 351.167969 491.648438 351.21875 491.628906 351.273438 491.609375 C 337.179688 490.546875 323.988281 482.644531 313.386719 473.613281 C 312.613281 476.988281 311.933594 480.382812 311.375 483.796875 Z M 296.199219 228.503906 C 295.296875 228.644531 294.386719 228.789062 293.46875 228.933594 L 175.074219 280.273438 L 239.710938 308.167969 L 296.304688 229.230469 C 296.269531 228.984375 296.234375 228.746094 296.199219 228.503906 Z M 361.394531 440.605469 L 361.394531 456.644531 C 362.441406 458.503906 363.355469 460.425781 364.167969 462.394531 C 364.269531 462.527344 364.34375 462.683594 364.367188 462.863281 C 366.578125 468.375 367.957031 474.25 368.890625 480.160156 C 369.21875 479.773438 369.558594 479.40625 369.875 479.003906 C 373.820312 474.003906 377.128906 467.933594 378.039062 461.558594 C 376.402344 456.746094 373.835938 452.25 370.402344 448.296875 C 367.757812 445.253906 364.722656 442.675781 361.394531 440.605469 Z M 327.3125 262.574219 L 360 308.167969 L 394.664062 293.207031 C 374.582031 292.066406 350.53125 282.613281 327.3125 262.574219 Z M 337.671875 513.890625 C 348.234375 514.625 358.472656 511.214844 366.472656 504.265625 C 374.472656 497.316406 379.285156 487.664062 380.03125 477.09375 C 380.292969 473.351562 380.023438 469.648438 379.269531 466.074219 C 376.328125 476.84375 367.972656 486.332031 358.027344 491.261719 C 357.855469 491.46875 357.601562 491.621094 357.261719 491.644531 C 357.242188 491.644531 357.222656 491.644531 357.207031 491.648438 C 356.03125 492.195312 354.84375 492.699219 353.632812 493.113281 C 339.535156 497.949219 324.320312 496.796875 310.265625 492.484375 C 310.109375 495.28125 310.242188 498.066406 310.945312 500.800781 C 317.589844 508.199219 326.992188 513.140625 337.671875 513.890625 Z M 376.714844 439.675781 C 376.0625 449.007812 378.652344 458.066406 384.046875 465.566406 C 383.6875 461.496094 384.226562 457.382812 384.839844 453.308594 C 385.695312 447.628906 386.855469 441.996094 388.304688 436.4375 C 390.988281 426.152344 394.703125 416.171875 399.292969 406.589844 C 396.074219 408.125 393.039062 410.101562 390.273438 412.503906 C 382.273438 419.457031 377.457031 429.105469 376.714844 439.675781 Z M 419.074219 402.878906 C 418.125 402.8125 417.175781 402.78125 416.234375 402.78125 C 414.878906 402.78125 413.535156 402.855469 412.199219 402.992188 C 415.066406 404.207031 417.785156 405.964844 420.28125 407.582031 C 424.695312 410.4375 428.875 413.632812 432.300781 417.652344 C 435.625 421.550781 438.113281 425.910156 440.011719 430.53125 C 440.117188 430.664062 440.1875 430.820312 440.210938 431 C 442.421875 436.511719 443.804688 442.386719 444.738281 448.296875 C 445.066406 447.910156 445.402344 447.542969 445.71875 447.140625 C 449.65625 442.152344 452.960938 436.09375 453.875 429.734375 C 448.886719 415.058594 435.484375 404.03125 419.074219 402.878906 Z M 386.800781 468.976562 C 393.714844 476.671875 403.171875 481.304688 413.519531 482.03125 C 435.339844 483.546875 454.34375 467.054688 455.875 445.230469 C 456.140625 441.457031 455.855469 437.773438 455.105469 434.242188 C 452.160156 445 443.808594 454.476562 433.875 459.398438 C 433.703125 459.605469 433.445312 459.757812 433.109375 459.78125 C 433.089844 459.78125 433.070312 459.78125 433.050781 459.785156 C 431.875 460.332031 430.6875 460.835938 429.480469 461.25 C 415.382812 466.085938 400.167969 464.933594 386.113281 460.621094 C 385.953125 463.429688 386.089844 466.230469 386.800781 468.976562 Z M 394.019531 442.902344 C 397.859375 445.914062 401.992188 448.703125 406.347656 451.039062 C 408.996094 450.742188 411.855469 450.230469 414.738281 449.472656 C 414.199219 448.996094 413.683594 448.503906 413.183594 448.003906 C 413.113281 447.949219 413.046875 447.882812 412.988281 447.804688 C 407.871094 442.566406 404.921875 435.929688 403.300781 428.6875 C 399.480469 432.957031 396.304688 437.773438 394.019531 442.902344 Z M 402.300781 405.3125 C 397.402344 415.152344 393.472656 425.4375 390.632812 436.058594 C 390.335938 437.164062 390.058594 438.277344 389.785156 439.390625 C 390.605469 440.105469 391.445312 440.8125 392.300781 441.511719 C 398.222656 428.441406 409.777344 417.480469 423.078125 412.121094 C 422.101562 411.398438 421.105469 410.703125 420.089844 410.027344 C 416.402344 407.578125 411.929688 404.378906 407.433594 403.765625 C 405.6875 404.164062 403.972656 404.679688 402.300781 405.3125 Z M 425.007812 413.625 C 424.972656 413.644531 424.945312 413.671875 424.902344 413.6875 C 419.859375 415.574219 415.066406 418.320312 410.738281 421.710938 C 420.394531 423.964844 428.917969 429.464844 435.070312 437.265625 C 436.371094 435.453125 437.375 433.441406 438.003906 431.214844 C 436.316406 427.132812 434.144531 423.261719 431.289062 419.785156 C 429.40625 417.492188 427.285156 415.46875 425.007812 413.625 Z M 405.09375 426.773438 C 405.359375 428.101562 405.667969 429.410156 406.023438 430.703125 C 411.757812 430.367188 417.621094 432.089844 422.335938 435.359375 C 423.265625 433.722656 424.011719 431.972656 424.203125 430.164062 C 424.210938 430.101562 424.242188 430.054688 424.257812 429.996094 C 419.582031 426.792969 414.261719 424.5625 408.613281 423.460938 C 407.394531 424.511719 406.222656 425.625 405.09375 426.773438 Z M 387.222656 451.9375 C 386.871094 454.078125 386.519531 456.25 386.292969 458.425781 C 399.453125 462.527344 413.589844 463.847656 426.957031 459.804688 C 427.015625 459.785156 427.066406 459.765625 427.121094 459.746094 C 413.027344 458.683594 399.835938 450.78125 389.234375 441.753906 C 388.457031 445.125 387.78125 448.519531 387.222656 451.9375 Z M 121.425781 368.894531 C 119.734375 368.253906 117.992188 367.722656 116.207031 367.316406 C 111.628906 367.964844 107.066406 371.257812 103.320312 373.761719 C 102.40625 374.375 101.507812 375.007812 100.628906 375.660156 C 113.925781 381.023438 125.480469 391.984375 131.40625 405.054688 C 132.257812 404.351562 133.097656 403.644531 133.921875 402.929688 C 133.648438 401.816406 133.371094 400.707031 133.074219 399.597656 C 130.238281 388.992188 126.3125 378.71875 121.425781 368.894531 Z M 410.804688 284.515625 C 426.308594 280.949219 436.234375 270.753906 438.753906 255.800781 C 441.652344 238.632812 435.5625 224.785156 421.148438 215.757812 C 392.617188 197.886719 341.292969 203.15625 305.015625 227.238281 C 340.632812 275.375 383.578125 290.777344 410.804688 284.515625 Z M 104.632812 366.417969 C 94.058594 367.160156 84.410156 371.976562 77.457031 379.976562 C 74.023438 383.925781 71.457031 388.425781 69.820312 393.238281 C 70.726562 399.609375 74.039062 405.6875 77.984375 410.683594 C 78.304688 411.082031 78.640625 411.449219 78.96875 411.835938 C 79.902344 405.925781 81.28125 400.046875 83.492188 394.53125 C 83.515625 394.355469 83.585938 394.207031 83.683594 394.078125 C 85.585938 389.453125 88.074219 385.089844 91.402344 381.195312 C 94.835938 377.175781 99.007812 373.976562 103.421875 371.121094 C 105.917969 369.507812 108.636719 367.75 111.5 366.535156 C 110.160156 366.398438 108.808594 366.324219 107.4375 366.324219 C 106.507812 366.324219 105.574219 366.355469 104.632812 366.417969 Z M 137.421875 421.964844 C 137.179688 419.625 136.785156 417.285156 136.402344 414.992188 C 135.863281 411.738281 135.210938 408.503906 134.476562 405.292969 C 123.871094 414.324219 110.679688 422.226562 96.585938 423.289062 C 96.640625 423.308594 96.691406 423.328125 96.75 423.34375 C 110.117188 427.390625 124.253906 426.070312 137.421875 421.964844 Z M 425.148438 209.371094 C 442.109375 219.996094 449.582031 236.929688 446.1875 257.054688 C 445.132812 263.3125 442.917969 268.917969 439.730469 273.761719 L 532.371094 233.785156 L 405.378906 178.980469 C 405.058594 179.984375 404.339844 180.855469 403.300781 181.308594 L 363.394531 198.613281 C 386.699219 195.984375 409.167969 199.363281 425.148438 209.371094 Z M 157.234375 467.804688 C 160.578125 470.710938 164.320312 472.992188 168.308594 474.617188 L 168.019531 455.863281 C 167.507812 455.652344 167.003906 455.421875 166.5 455.183594 C 166.480469 455.183594 166.460938 455.183594 166.445312 455.183594 C 166.105469 455.160156 165.851562 455.007812 165.675781 454.800781 C 155.734375 449.875 147.375 440.382812 144.4375 429.617188 C 143.683594 433.191406 143.414062 436.890625 143.679688 440.632812 C 144.417969 451.207031 149.234375 460.855469 157.234375 467.804688 Z M 161.554688 426.636719 C 162.183594 428.855469 163.183594 430.863281 164.480469 432.667969 C 165.464844 431.421875 166.507812 430.238281 167.605469 429.113281 L 167.410156 416.292969 C 164.976562 419.492188 163.066406 422.972656 161.554688 426.636719 Z M 165.941406 434.25 C 165.910156 434.292969 165.871094 434.328125 165.835938 434.363281 C 166.421875 435.035156 167.050781 435.675781 167.71875 436.28125 L 167.652344 432.179688 C 167.066406 432.851562 166.488281 433.539062 165.941406 434.25 Z M 160.367188 429.742188 C 158.578125 434.898438 157.460938 440.324219 156.671875 445.726562 C 159.695312 448.796875 163.101562 451.226562 166.960938 453.046875 C 167.300781 453.0625 167.636719 453.066406 167.972656 453.074219 L 167.757812 439.121094 C 164.5625 436.582031 161.960938 433.480469 160.367188 429.742188 Z M 80.828125 413.863281 C 83.851562 416.933594 87.257812 419.363281 91.117188 421.183594 C 99.074219 421.617188 106.8125 419.636719 114.019531 416.265625 C 111.640625 415.863281 109.175781 415.308594 106.722656 414.582031 C 106.59375 414.578125 106.46875 414.539062 106.355469 414.472656 C 97.144531 411.679688 88.171875 406.445312 84.523438 397.878906 C 82.730469 403.035156 81.613281 408.460938 80.828125 413.863281 Z M 67.828125 408.773438 C 68.570312 419.34375 73.386719 428.992188 81.386719 435.941406 C 89.386719 442.894531 99.613281 446.3125 110.1875 445.570312 C 120.871094 444.820312 130.269531 439.878906 136.914062 432.476562 C 137.613281 429.746094 137.753906 426.957031 137.597656 424.160156 C 123.542969 428.472656 108.324219 429.625 94.226562 424.789062 C 93.015625 424.375 91.828125 423.871094 90.652344 423.320312 C 90.636719 423.320312 90.617188 423.320312 90.597656 423.320312 C 90.257812 423.296875 90.003906 423.144531 89.828125 422.9375 C 79.886719 418.011719 71.53125 408.519531 68.589844 397.753906 C 67.835938 401.328125 67.566406 405.027344 67.828125 408.773438 Z M 167.5625 275.320312 L 265.574219 232.820312 C 259.453125 233.425781 253.125 233.824219 246.617188 233.824219 C 218.472656 233.824219 187.140625 226.523438 156.542969 197.683594 C 155.972656 197.144531 155.609375 196.472656 155.449219 195.761719 L 67.335938 233.785156 L 166.132812 276.417969 C 166.507812 275.949219 166.988281 275.566406 167.5625 275.320312 Z M 97.539062 394.933594 C 94.769531 397.074219 92.261719 399.566406 90.097656 402.390625 C 90.0625 402.433594 90.023438 402.464844 89.988281 402.503906 C 94.097656 407.179688 100.230469 410.34375 106.496094 412.300781 C 107.15625 411.78125 107.78125 411.238281 108.378906 410.679688 C 103.683594 406.835938 98.71875 400.949219 97.539062 394.933594 Z M 303.25 216.480469 L 397.535156 175.59375 L 299.855469 133.445312 L 297.335938 134.53125 C 306.878906 158.734375 309.480469 189.007812 303.25 216.480469 Z M 117.046875 396.386719 C 111.9375 396.234375 106.679688 397.761719 102.507812 400.726562 C 102.820312 401.195312 103.136719 401.65625 103.449219 402.097656 C 105.273438 404.679688 107.4375 407.136719 109.910156 409.144531 C 113.261719 405.480469 115.515625 401.109375 117.046875 396.386719 Z M 99.449219 393.535156 C 99.464844 393.59375 99.496094 393.640625 99.503906 393.703125 C 99.695312 395.511719 100.441406 397.261719 101.375 398.898438 C 106.089844 395.628906 111.949219 393.90625 117.683594 394.246094 C 118.039062 392.953125 118.347656 391.640625 118.613281 390.316406 C 117.484375 389.164062 116.3125 388.054688 115.09375 387 C 109.445312 388.105469 104.125 390.332031 99.449219 393.535156 Z M 129.683594 406.441406 C 127.398438 401.316406 124.226562 396.5 120.40625 392.226562 C 118.78125 399.472656 115.835938 406.105469 110.714844 411.347656 C 110.65625 411.421875 110.59375 411.484375 110.523438 411.542969 C 110.023438 412.042969 109.507812 412.535156 108.964844 413.011719 C 111.851562 413.769531 114.710938 414.28125 117.359375 414.578125 C 121.710938 412.242188 125.847656 409.453125 129.683594 406.441406 Z M 294.675781 219.769531 C 302.136719 192.457031 300.035156 161.613281 290.527344 137.46875 L 219.195312 168.25 C 232.726562 188.066406 257.578125 207.582031 294.675781 219.769531 Z M 98.691406 377.160156 C 96.414062 379.007812 94.292969 381.03125 92.417969 383.324219 C 89.566406 386.816406 87.394531 390.6875 85.707031 394.773438 C 86.335938 396.992188 87.339844 399 88.636719 400.804688 C 94.789062 393.007812 103.3125 387.503906 112.96875 385.25 C 108.640625 381.863281 103.847656 379.113281 98.800781 377.230469 C 98.757812 377.214844 98.730469 377.183594 98.691406 377.160156 Z M 281.804688 223.140625 C 248.179688 210.066406 225.226562 190.832031 212.242188 171.25 L 162.34375 192.785156 C 204.152344 231.746094 247.941406 228.269531 281.804688 223.140625 Z M 492.167969 452.417969 C 491.191406 452.417969 490.203125 452.382812 489.210938 452.3125 C 478.113281 451.535156 468.324219 446.460938 461.335938 438.839844 C 461.050781 438.742188 460.800781 438.53125 460.691406 438.152344 C 460.6875 438.144531 460.6875 438.132812 460.683594 438.125 C 459.398438 436.652344 458.210938 435.089844 457.140625 433.449219 C 457.984375 437.277344 458.3125 441.28125 458.023438 445.382812 C 456.476562 467.394531 438.066406 484.277344 416.324219 484.277344 C 415.34375 484.277344 414.359375 484.246094 413.367188 484.175781 C 402.585938 483.417969 392.726562 478.636719 385.457031 470.695312 C 385.191406 470.59375 384.960938 470.386719 384.855469 470.035156 C 384.8125 469.984375 384.765625 469.9375 384.71875 469.886719 C 383.480469 468.460938 382.355469 466.960938 381.332031 465.40625 C 382.164062 469.246094 382.460938 473.21875 382.175781 477.246094 C 381.394531 488.390625 376.320312 498.5625 367.886719 505.890625 C 360.207031 512.558594 350.585938 516.144531 340.515625 516.144531 C 339.519531 516.144531 338.523438 516.109375 337.523438 516.039062 C 326.421875 515.257812 316.632812 510.1875 309.648438 502.566406 C 309.359375 502.46875 309.109375 502.257812 309 501.878906 C 308.996094 501.871094 308.996094 501.859375 308.992188 501.847656 C 304.019531 496.167969 300.578125 489.15625 299.242188 481.484375 C 297.515625 487.359375 294.523438 492.730469 290.5625 497.253906 C 290.558594 497.261719 290.558594 497.273438 290.554688 497.28125 C 290.449219 497.664062 290.195312 497.875 289.910156 497.96875 C 282.921875 505.589844 273.136719 510.664062 262.03125 511.441406 C 261.03125 511.511719 260.035156 511.546875 259.042969 511.546875 C 248.972656 511.546875 239.347656 507.964844 231.667969 501.292969 C 223.234375 493.964844 218.160156 483.792969 217.378906 472.648438 C 217.09375 468.605469 217.394531 464.609375 218.234375 460.753906 C 217.167969 462.378906 215.992188 463.929688 214.714844 465.390625 C 214.710938 465.402344 214.710938 465.410156 214.707031 465.421875 C 214.601562 465.800781 214.351562 466.011719 214.0625 466.109375 C 207.078125 473.726562 197.289062 478.800781 186.1875 479.582031 C 185.1875 479.652344 184.1875 479.6875 183.195312 479.6875 C 180.734375 479.6875 178.300781 479.46875 175.914062 479.046875 L 176.453125 514.132812 C 176.460938 514.707031 176.332031 515.25 176.105469 515.742188 L 299.855469 569.144531 L 533.734375 468.21875 L 533.734375 414.976562 C 531.496094 436.269531 513.429688 452.417969 492.167969 452.417969 Z M 146.992188 403.21875 C 145.953125 388.457031 136.921875 376.140625 124.433594 370.179688 C 129.011719 379.746094 132.722656 389.710938 135.402344 399.976562 C 136.894531 405.695312 138.074219 411.492188 138.9375 417.335938 C 139.515625 421.246094 140 425.179688 139.65625 429.078125 C 144.859375 421.828125 147.660156 412.792969 146.992188 403.21875 Z M 437.242188 277.179688 C 431.320312 284.378906 422.886719 289.46875 412.496094 291.855469 C 408.558594 292.761719 404.316406 293.242188 399.851562 293.3125 L 361.28125 309.957031 L 361.394531 310.117188 L 361.394531 338.871094 C 364.328125 340.769531 367.414062 342.601562 370.671875 344.363281 C 372.503906 345.351562 373.183594 347.636719 372.195312 349.46875 C 371.515625 350.726562 370.214844 351.445312 368.878906 351.445312 C 368.269531 351.445312 367.660156 351.296875 367.089844 350.992188 C 365.132812 349.933594 363.238281 348.851562 361.398438 347.75 L 361.398438 438.097656 C 365.351562 440.386719 368.941406 443.332031 372.027344 446.882812 C 373.265625 448.308594 374.390625 449.808594 375.414062 451.363281 C 374.585938 447.527344 374.289062 443.550781 374.570312 439.523438 C 375.351562 428.378906 380.425781 418.207031 388.859375 410.878906 C 394.121094 406.3125 400.292969 403.191406 406.894531 401.679688 C 406.96875 401.644531 407.058594 401.636719 407.148438 401.625 C 411.058594 400.753906 415.117188 400.441406 419.222656 400.730469 C 432.773438 401.683594 444.375 409.023438 451.300781 419.59375 C 450.453125 415.769531 450.128906 411.765625 450.414062 407.660156 C 451.730469 388.910156 465.285156 373.871094 482.714844 369.835938 C 482.820312 369.78125 482.945312 369.757812 483.089844 369.757812 C 486.929688 368.90625 490.953125 368.578125 495.070312 368.867188 C 506.21875 369.652344 516.390625 374.726562 523.71875 383.160156 C 529.40625 389.707031 532.839844 397.671875 533.730469 406.121094 L 533.730469 235.539062 Z M 104.480469 364.273438 C 108.601562 363.980469 112.621094 364.308594 116.460938 365.160156 C 116.605469 365.164062 116.734375 365.1875 116.839844 365.238281 C 134.269531 369.277344 147.820312 384.316406 149.136719 403.066406 C 149.421875 407.089844 149.121094 411.070312 148.289062 414.90625 C 149.3125 413.351562 150.4375 411.851562 151.679688 410.425781 C 155.980469 405.476562 161.265625 401.695312 167.144531 399.25 L 165.292969 278.832031 C 165.289062 278.6875 165.304688 278.546875 165.316406 278.40625 L 65.976562 235.542969 L 65.976562 400.207031 C 67.074219 392.25 70.441406 384.769531 75.832031 378.5625 C 83.164062 370.128906 93.335938 365.054688 104.480469 364.273438 Z M 153.304688 411.839844 C 149.871094 415.789062 147.300781 420.289062 145.667969 425.101562 C 146.574219 431.46875 149.886719 437.550781 153.832031 442.546875 C 154.148438 442.945312 154.488281 443.3125 154.8125 443.699219 C 155.75 437.789062 157.128906 431.910156 159.339844 426.394531 C 159.363281 426.21875 159.433594 426.070312 159.53125 425.941406 C 161.429688 421.316406 163.921875 416.953125 167.25 413.058594 C 167.285156 413.015625 167.320312 412.980469 167.355469 412.9375 L 167.179688 401.566406 C 161.921875 403.894531 157.191406 407.367188 153.304688 411.839844 Z M 155.820312 469.429688 C 147.386719 462.101562 142.3125 451.929688 141.53125 440.785156 C 141.246094 436.761719 141.546875 432.785156 142.375 428.949219 C 141.351562 430.5 140.226562 432 138.988281 433.425781 C 138.945312 433.476562 138.894531 433.527344 138.851562 433.578125 C 138.746094 433.929688 138.515625 434.136719 138.25 434.238281 C 130.980469 442.179688 121.121094 446.960938 110.339844 447.71875 C 109.339844 447.789062 108.339844 447.824219 107.347656 447.824219 C 97.277344 447.824219 87.65625 444.238281 79.976562 437.570312 C 72.242188 430.851562 67.34375 421.738281 65.976562 411.679688 L 65.976562 468.21875 L 168.890625 512.628906 L 168.34375 476.953125 C 163.820312 475.222656 159.585938 472.699219 155.820312 469.429688 Z M 155.820312 469.429688 " fill-opacity="1" fill-rule="nonzero"/></g><g clip-path="url(#24308056db)"><path fill="#fdd2bd" d="M 362.132812 108.75 L 381.984375 105.039062 L 385.699219 85.1875 L 389.414062 105.039062 L 409.269531 108.75 L 389.414062 112.464844 L 385.699219 132.316406 L 381.984375 112.464844 Z M 337.320312 104.257812 L 343.125 73.230469 L 374.152344 67.429688 L 343.125 61.625 L 337.320312 30.601562 L 331.515625 61.625 L 300.488281 67.425781 L 331.515625 73.230469 Z M 446.1875 257.054688 C 445.132812 263.3125 442.917969 268.917969 439.730469 273.761719 C 438.953125 274.941406 438.136719 276.09375 437.242188 277.179688 C 431.320312 284.378906 422.886719 289.46875 412.496094 291.855469 C 408.558594 292.761719 404.316406 293.242188 399.851562 293.3125 C 399.496094 293.320312 399.148438 293.339844 398.785156 293.339844 C 397.433594 293.339844 396.054688 293.289062 394.664062 293.207031 C 374.582031 292.066406 350.53125 282.613281 327.3125 262.574219 C 319.882812 256.164062 312.542969 248.679688 305.445312 240.03125 C 309.953125 270.511719 318.863281 311.363281 361.394531 338.871094 C 364.328125 340.769531 367.414062 342.601562 370.671875 344.363281 C 372.503906 345.351562 373.183594 347.636719 372.195312 349.46875 C 371.515625 350.726562 370.214844 351.445312 368.878906 351.445312 C 368.269531 351.445312 367.660156 351.296875 367.089844 350.992188 C 365.132812 349.933594 363.238281 348.851562 361.398438 347.75 C 308.402344 316.0625 301.472656 266.335938 296.84375 233.054688 C 296.660156 231.746094 296.484375 230.476562 296.304688 229.226562 C 296.269531 228.984375 296.234375 228.746094 296.203125 228.503906 C 295.300781 228.644531 294.390625 228.785156 293.472656 228.933594 L 175.074219 280.273438 L 172.867188 281.230469 L 172.875 281.667969 L 174.648438 396.929688 L 174.683594 399.113281 L 174.789062 406.101562 L 174.800781 406.949219 L 174.835938 409.164062 L 175.050781 423 L 175.082031 424.964844 L 175.183594 431.78125 L 175.332031 441.378906 L 175.367188 443.746094 L 175.503906 452.625 L 175.539062 454.804688 L 175.558594 456.003906 L 175.589844 458.230469 L 175.878906 476.84375 L 175.910156 479.042969 L 176.453125 514.128906 C 176.460938 514.703125 176.328125 515.246094 176.105469 515.738281 C 175.519531 517.023438 174.246094 517.929688 172.742188 517.953125 C 172.722656 517.953125 172.703125 517.953125 172.683594 517.953125 C 170.628906 517.953125 168.949219 516.304688 168.917969 514.242188 L 168.890625 512.625 L 168.34375 476.949219 L 168.308594 474.613281 L 168.019531 455.859375 L 168.007812 455.253906 L 167.976562 453.070312 L 167.761719 439.117188 L 167.714844 436.277344 L 167.652344 432.179688 L 167.605469 429.109375 L 167.40625 416.289062 L 167.355469 412.933594 L 167.179688 401.5625 L 167.144531 399.246094 L 165.292969 278.828125 C 165.289062 278.6875 165.304688 278.546875 165.316406 278.40625 C 165.386719 277.664062 165.675781 276.976562 166.132812 276.414062 C 166.507812 275.949219 166.988281 275.5625 167.558594 275.316406 L 265.570312 232.816406 C 259.453125 233.417969 253.125 233.820312 246.617188 233.820312 C 218.46875 233.820312 187.140625 226.519531 156.542969 197.679688 C 155.972656 197.140625 155.609375 196.46875 155.449219 195.753906 C 155.1875 194.578125 155.496094 193.296875 156.386719 192.351562 C 157.8125 190.839844 160.195312 190.769531 161.710938 192.195312 C 161.921875 192.394531 162.132812 192.582031 162.34375 192.78125 C 204.152344 231.742188 247.941406 228.265625 281.804688 223.136719 C 248.179688 210.0625 225.226562 190.828125 212.242188 171.246094 C 204.730469 159.914062 200.539062 148.464844 199.558594 138.035156 C 197.796875 119.246094 205.984375 103.605469 222.019531 95.121094 C 240.066406 85.578125 258.492188 87.351562 273.90625 100.117188 C 283.828125 108.332031 291.761719 120.394531 297.335938 134.527344 C 306.878906 158.726562 309.480469 189.003906 303.25 216.476562 L 397.535156 175.589844 L 400.300781 174.390625 C 402.207031 173.5625 404.429688 174.4375 405.257812 176.347656 C 405.632812 177.214844 405.644531 178.140625 405.378906 178.976562 C 405.0625 179.980469 404.34375 180.851562 403.300781 181.304688 L 363.394531 198.609375 C 386.699219 195.980469 409.167969 199.359375 425.148438 209.367188 C 442.109375 219.996094 449.582031 236.929688 446.1875 257.054688 Z M 294.675781 219.769531 C 302.136719 192.457031 300.035156 161.613281 290.527344 137.46875 C 285.417969 124.484375 278.167969 113.429688 269.097656 105.921875 C 261.589844 99.703125 253.433594 96.578125 244.941406 96.578125 C 238.621094 96.578125 232.113281 98.308594 225.542969 101.785156 C 212.140625 108.875 205.578125 121.5 207.0625 137.335938 C 207.96875 147.015625 211.972656 157.675781 219.195312 168.25 C 232.726562 188.066406 257.578125 207.582031 294.675781 219.769531 Z M 421.148438 215.757812 C 392.617188 197.886719 341.292969 203.15625 305.015625 227.238281 C 340.632812 275.375 383.578125 290.777344 410.804688 284.515625 C 426.308594 280.949219 436.234375 270.753906 438.753906 255.800781 C 441.652344 238.632812 435.5625 224.789062 421.148438 215.757812 Z M 340.019531 378.386719 L 340.699219 369.035156 C 340.742188 368.441406 340.296875 367.925781 339.703125 367.882812 C 339.121094 367.832031 338.597656 368.285156 338.554688 368.878906 L 337.976562 376.84375 C 336.015625 375.421875 333.90625 374.035156 331.753906 372.621094 C 330.191406 371.59375 328.597656 370.542969 327.011719 369.449219 C 327.160156 366.28125 327.246094 362.929688 327.289062 359.15625 C 327.296875 358.5625 326.816406 358.078125 326.222656 358.070312 C 325.660156 358.039062 325.140625 358.539062 325.136719 359.132812 C 325.101562 362.339844 325.035156 365.238281 324.921875 367.980469 C 316.382812 361.832031 308.410156 354.058594 306.515625 340.695312 C 306.429688 340.105469 305.886719 339.691406 305.296875 339.78125 C 304.707031 339.863281 304.300781 340.410156 304.382812 340.996094 C 306.484375 355.816406 315.476562 364.019531 324.800781 370.539062 C 324.394531 378.183594 323.585938 384.867188 322.074219 393.964844 C 321.976562 394.550781 322.371094 395.105469 322.957031 395.199219 C 323.019531 395.210938 323.078125 395.214844 323.136719 395.214844 C 323.652344 395.214844 324.109375 394.84375 324.195312 394.316406 C 325.636719 385.652344 326.445312 379.152344 326.875 371.964844 C 328.113281 372.800781 329.351562 373.617188 330.570312 374.417969 C 333.105469 376.085938 335.578125 377.710938 337.789062 379.382812 L 337.660156 381.167969 C 337.261719 386.625 336.851562 392.269531 335.382812 397.589844 C 335.222656 398.160156 335.558594 398.753906 336.132812 398.914062 C 336.226562 398.9375 336.324219 398.949219 336.421875 398.949219 C 336.890625 398.949219 337.324219 398.640625 337.457031 398.160156 C 338.984375 392.640625 339.402344 386.886719 339.808594 381.324219 L 339.832031 381.011719 C 341.828125 382.707031 343.511719 384.476562 344.671875 386.402344 C 344.871094 386.738281 345.230469 386.925781 345.59375 386.925781 C 345.78125 386.925781 345.972656 386.875 346.148438 386.769531 C 346.65625 386.464844 346.820312 385.800781 346.515625 385.292969 C 344.980469 382.746094 342.699219 380.507812 340.019531 378.386719 Z M 321.046875 405.902344 C 320.59375 405.40625 320.042969 405.011719 319.445312 404.730469 C 317.683594 403.40625 316.019531 401.957031 314.820312 400.15625 C 313.484375 398.148438 312.460938 394.863281 313.96875 392.207031 C 314.164062 391.867188 314.15625 391.445312 313.949219 391.109375 C 313.746094 390.777344 313.378906 390.582031 312.980469 390.597656 C 310.339844 390.722656 308.148438 390.269531 306.457031 389.238281 C 304.546875 388.070312 303.328125 386.011719 303.429688 384.113281 C 303.535156 382.113281 305.238281 380.347656 307.050781 380.417969 C 308.652344 380.472656 310.003906 381.765625 310.855469 382.839844 C 312.429688 384.824219 313.421875 387.195312 313.730469 389.707031 C 313.804688 390.296875 314.335938 390.722656 314.929688 390.644531 C 315.523438 390.570312 315.941406 390.035156 315.867188 389.445312 C 315.511719 386.542969 314.363281 383.796875 312.542969 381.503906 C 310.917969 379.453125 309.042969 378.335938 307.125 378.265625 C 304.1875 378.175781 301.441406 380.839844 301.277344 384 C 301.132812 386.707031 302.726562 389.484375 305.332031 391.074219 C 307.015625 392.097656 309.054688 392.664062 311.414062 392.753906 C 310.640625 395.410156 311.210938 398.613281 313.023438 401.34375 C 313.792969 402.5 314.722656 403.515625 315.726562 404.441406 C 315.699219 404.449219 315.675781 404.453125 315.652344 404.460938 C 313.726562 405.078125 312.296875 406.839844 312.085938 408.847656 L 312.066406 409.050781 C 312.0625 409.101562 312.054688 409.164062 312.046875 409.226562 C 311.964844 409.128906 311.875 409.003906 311.792969 408.851562 C 309.621094 405.007812 307.15625 401.132812 303.0625 399.699219 C 298.640625 398.148438 293.285156 400.246094 290.859375 404.472656 C 288.597656 408.417969 289.042969 413.824219 291.949219 417.625 C 294.535156 421.011719 298.882812 423.058594 303.414062 423.058594 C 303.613281 423.058594 303.816406 423.054688 304.019531 423.046875 C 304.613281 423.023438 305.074219 422.523438 305.050781 421.929688 C 305.027344 421.332031 304.515625 420.847656 303.933594 420.894531 C 299.871094 421.066406 295.941406 419.304688 293.65625 416.316406 C 291.265625 413.1875 290.886719 408.757812 292.726562 405.542969 C 294.621094 402.246094 298.933594 400.53125 302.347656 401.730469 C 305.742188 402.917969 307.867188 406.277344 309.917969 409.910156 C 310.148438 410.320312 310.789062 411.300781 311.769531 411.558594 C 312.261719 411.6875 312.746094 411.621094 313.179688 411.363281 C 314.066406 410.835938 314.15625 409.839844 314.210938 409.246094 L 314.230469 409.070312 C 314.347656 407.917969 315.203125 406.863281 316.308594 406.507812 C 316.96875 406.296875 317.695312 406.34375 318.34375 406.597656 C 319.023438 407.105469 319.703125 407.585938 320.359375 408.050781 C 320.546875 408.183594 320.765625 408.25 320.980469 408.25 C 321.316406 408.25 321.648438 408.09375 321.859375 407.796875 C 322.203125 407.308594 322.085938 406.636719 321.601562 406.292969 C 321.417969 406.164062 321.234375 406.035156 321.046875 405.902344 Z M 282.902344 395.566406 C 282.078125 397.558594 282.285156 400.320312 283.871094 401.914062 C 283.933594 401.964844 283.988281 402.011719 284.046875 402.0625 C 284.246094 402.242188 284.449219 402.414062 284.6875 402.554688 C 285.199219 402.855469 285.371094 403.519531 285.066406 404.027344 C 284.9375 404.246094 284.742188 404.390625 284.527344 404.476562 C 284.125 404.671875 283.636719 404.617188 283.300781 404.285156 C 283.21875 404.203125 283.117188 404.109375 283.015625 404.019531 C 282.832031 403.851562 282.625 403.667969 282.386719 403.476562 C 279.601562 401.1875 273.503906 397.414062 269.804688 398.195312 C 268.625 398.445312 267.816406 399.167969 267.328125 400.402344 C 266.789062 401.769531 266.984375 402.980469 267.929688 404.113281 C 270.773438 407.53125 279.019531 408.953125 281.492188 408.464844 C 281.972656 408.367188 282.453125 408.609375 282.667969 409.046875 C 282.882812 409.480469 282.777344 410.007812 282.410156 410.328125 C 281.457031 411.164062 280.269531 411.871094 279.015625 412.617188 C 275.769531 414.550781 271.726562 416.957031 269.027344 423.152344 C 267.183594 427.386719 267.277344 432.074219 269.292969 436.015625 C 271.460938 440.25 275.675781 443.238281 281.167969 444.433594 C 281.75 444.558594 282.117188 445.132812 281.992188 445.714844 C 281.882812 446.21875 281.4375 446.558594 280.941406 446.558594 C 280.863281 446.558594 280.789062 446.554688 280.710938 446.535156 C 274.578125 445.203125 269.84375 441.8125 267.378906 436.996094 C 265.066406 432.480469 264.949219 427.117188 267.054688 422.289062 C 270.03125 415.460938 274.589844 412.75 277.914062 410.769531 C 278.035156 410.695312 278.152344 410.625 278.269531 410.554688 C 274.320312 410.109375 268.800781 408.519531 266.277344 405.492188 C 264.824219 403.75 264.5 401.71875 265.328125 399.613281 C 266.078125 397.707031 267.472656 396.488281 269.359375 396.089844 C 272.726562 395.378906 277.070312 397.324219 280.382812 399.398438 C 280.136719 397.8125 280.335938 396.152344 280.917969 394.742188 C 281.039062 394.449219 281.175781 394.164062 281.324219 393.882812 C 278.269531 393.804688 275.3125 392.058594 273.878906 389.445312 C 273.027344 387.894531 272.816406 386.269531 273.289062 384.875 C 273.683594 383.695312 274.578125 382.644531 275.945312 381.753906 C 278.332031 380.199219 281.28125 379.730469 284.078125 380.203125 C 283.304688 379.40625 282.550781 378.636719 281.835938 377.90625 C 278.695312 374.699219 276.042969 371.984375 273.914062 369.273438 C 267.300781 366.414062 260.566406 363.117188 255.3125 359.285156 C 245.898438 352.425781 246.496094 340.96875 249.925781 335.023438 C 252.171875 331.136719 255.523438 329.585938 258.675781 330.984375 C 263.210938 332.996094 264.503906 337.84375 266.460938 345.179688 C 267.660156 349.671875 269.152344 355.261719 271.832031 361.699219 C 272.691406 363.769531 273.828125 365.632812 275.261719 367.511719 C 277.804688 368.605469 280.332031 369.632812 282.738281 370.601562 C 279.269531 367.914062 276.367188 364.90625 275.679688 362.023438 C 275.28125 360.367188 275.609375 358.863281 276.652344 357.554688 C 280.492188 352.734375 288.757812 356.941406 294.839844 360.847656 C 292.375 356.742188 290.046875 351.183594 289.066406 344.921875 C 287.496094 334.90625 289.753906 325.398438 295.597656 317.421875 C 295.949219 316.941406 296.621094 316.835938 297.101562 317.1875 C 297.582031 317.539062 297.683594 318.214844 297.335938 318.691406 C 290.390625 328.175781 290.160156 338.007812 291.191406 344.589844 C 292.65625 353.917969 297.179688 361.300781 300.167969 364.460938 C 300.394531 364.613281 300.605469 364.753906 300.78125 364.867188 C 300.996094 365.003906 301.132812 365.210938 301.207031 365.4375 C 301.304688 365.515625 301.402344 365.601562 301.492188 365.667969 C 301.972656 366.015625 302.082031 366.691406 301.730469 367.171875 C 301.523438 367.460938 301.195312 367.613281 300.859375 367.613281 C 300.640625 367.613281 300.417969 367.546875 300.230469 367.410156 C 299.773438 367.082031 299.277344 366.636719 298.753906 366.097656 C 298.453125 365.894531 298.121094 365.664062 297.757812 365.410156 C 293.015625 362.121094 281.90625 354.414062 278.335938 358.894531 C 277.710938 359.679688 277.53125 360.515625 277.773438 361.523438 C 278.820312 365.90625 287.234375 371.574219 293.699219 375.117188 C 295.527344 375.9375 297.085938 376.710938 298.277344 377.445312 C 298.761719 377.742188 298.933594 378.367188 298.664062 378.867188 C 298.394531 379.371094 297.78125 379.574219 297.265625 379.339844 C 297.207031 379.3125 295.515625 378.519531 293.097656 377.207031 C 290.582031 376.070312 287.476562 374.824219 284.09375 373.46875 C 282.246094 372.726562 280.304688 371.949219 278.324219 371.132812 C 279.800781 372.746094 281.480469 374.464844 283.375 376.398438 C 285.058594 378.121094 286.910156 380.015625 288.910156 382.140625 C 289.933594 382.84375 290.847656 383.699219 291.574219 384.722656 C 291.835938 385.09375 291.832031 385.566406 291.601562 385.925781 C 291.542969 386.078125 291.460938 386.222656 291.332031 386.339844 C 291.125 386.53125 290.867188 386.621094 290.605469 386.621094 C 290.316406 386.621094 290.023438 386.503906 289.8125 386.273438 C 289.027344 385.414062 288.269531 384.597656 287.527344 383.8125 C 284.476562 381.824219 280.164062 381.574219 277.117188 383.558594 C 276.167969 384.179688 275.566406 384.851562 275.328125 385.5625 C 275.054688 386.371094 275.214844 387.40625 275.765625 388.410156 C 276.882812 390.449219 279.269531 391.792969 281.664062 391.730469 C 282.105469 391.722656 282.546875 391.667969 282.984375 391.570312 C 284.289062 390.152344 286.03125 388.910156 288.152344 387.898438 C 288.585938 387.691406 289.105469 387.796875 289.425781 388.160156 C 289.742188 388.523438 289.78125 389.054688 289.515625 389.457031 C 288.25 391.402344 286.3125 392.832031 284.164062 393.488281 C 283.65625 394.109375 283.21875 394.804688 282.902344 395.566406 Z M 271.539062 365.871094 C 270.890625 364.792969 270.320312 363.691406 269.835938 362.527344 C 267.105469 355.957031 265.59375 350.289062 264.375 345.734375 C 262.578125 339 261.394531 334.546875 257.796875 332.953125 C 257.292969 332.730469 256.8125 332.632812 256.355469 332.632812 C 254 332.632812 252.3125 335.191406 251.785156 336.101562 C 248.84375 341.199219 248.328125 351.539062 256.574219 357.550781 C 260.824219 360.644531 266.121094 363.40625 271.539062 365.871094 Z M 271.539062 365.871094 " fill-opacity="1" fill-rule="nonzero"/></g></svg>