<svg xmlns="http://www.w3.org/2000/svg" xmlns:xlink="http://www.w3.org/1999/xlink" width="800" zoomAndPan="magnify" viewBox="0 0 600 599.999999" height="800" preserveAspectRatio="xMidYMid meet" version="1.0"><defs><clipPath id="3438e7dc60"><path d="M 47 69.242188 L 556 69.242188 L 556 527 L 47 527 Z M 47 69.242188 " clip-rule="nonzero"/></clipPath><clipPath id="77c9ec28b2"><path d="M 168.164062 322 L 555 322 L 555 529 L 168.164062 529 Z M 168.164062 322 " clip-rule="nonzero"/></clipPath><clipPath id="1759c5eab4"><path d="M 415 69.242188 L 555 69.242188 L 555 345 L 415 345 Z M 415 69.242188 " clip-rule="nonzero"/></clipPath><clipPath id="565ed70e9e"><path d="M 44.503906 244 L 187.691406 244 L 187.691406 530.492188 L 44.503906 530.492188 Z M 44.503906 244 " clip-rule="nonzero"/></clipPath><clipPath id="555df74891"><path d="M 44.503906 245 L 187.691406 245 L 187.691406 527 L 44.503906 527 Z M 44.503906 245 " clip-rule="nonzero"/></clipPath></defs><g clip-path="url(#3438e7dc60)"><path fill="#fce8bc" d="M 47.734375 253.613281 L 429.71875 69.269531 L 555.589844 338.695312 L 175.179688 526.925781 L 47.734375 253.613281 " fill-opacity="1" fill-rule="evenodd"/></g><g clip-path="url(#77c9ec28b2)"><path fill="#fce8bc" d="M 547.582031 322.785156 L 554.980469 337.398438 L 176.070312 528.984375 L 168.671875 514.347656 L 547.582031 322.785156 " fill-opacity="1" fill-rule="evenodd"/></g><path fill="#b36a5e" d="M 503.957031 344.84375 L 488.878906 352.46875 C 486.871094 358.921875 484.964844 367.28125 484.710938 372.925781 L 502.203125 364.082031 C 503.117188 357.980469 503.855469 350.257812 503.957031 344.84375 Z M 553.175781 333.839844 L 547.582031 322.785156 L 539.652344 326.800781 C 537.640625 332.796875 535.558594 341.285156 534.949219 347.539062 L 552.589844 338.617188 C 552.792969 337.066406 553 335.464844 553.175781 333.839844 Z M 400.535156 397.144531 L 385.203125 404.867188 C 383.222656 411.5 381.390625 419.8125 381.261719 425.222656 L 398.679688 416.429688 C 399.59375 410.457031 400.355469 402.734375 400.535156 397.144531 Z M 450.644531 371.78125 L 435.972656 379.203125 C 433.964844 385.402344 431.957031 393.839844 431.449219 399.863281 L 449.066406 390.941406 C 449.957031 384.589844 450.644531 376.890625 450.644531 371.78125 Z M 347.222656 424.078125 L 332.296875 431.628906 C 330.316406 437.957031 328.355469 446.367188 327.976562 452.160156 L 345.542969 443.292969 C 346.457031 437.066406 347.144531 429.367188 347.222656 424.078125 Z M 243.800781 476.355469 L 228.648438 484.027344 C 226.636719 490.535156 224.78125 498.871094 224.554688 504.460938 L 242.019531 495.617188 C 242.933594 489.570312 243.671875 481.84375 243.800781 476.355469 Z M 174.570312 526.035156 L 176.070312 528.984375 L 191.605469 521.105469 C 192.546875 515.4375 193.382812 507.6875 193.613281 501.742188 L 177.902344 509.667969 C 176.375 515.03125 175.027344 521.207031 174.570312 526.035156 Z M 295.152344 468.78125 L 277.816406 477.523438 C 277.816406 472.339844 279.570312 464.027344 281.550781 457.269531 L 297.0625 449.441406 C 296.859375 455.210938 296.070312 462.960938 295.152344 468.78125 " fill-opacity="1" fill-rule="nonzero"/><path fill="#73a892" d="M 373.863281 410.613281 L 359.628906 417.804688 C 357.59375 423.722656 355.457031 432.238281 354.796875 438.617188 L 372.441406 429.695312 C 373.304688 423.113281 373.941406 415.390625 373.863281 410.613281 Z M 477.261719 358.335938 L 463.328125 365.375 C 461.296875 371.070312 459.058594 379.710938 458.269531 386.292969 L 475.964844 377.347656 C 476.828125 370.613281 477.414062 362.859375 477.261719 358.335938 Z M 528.667969 332.367188 L 515.550781 338.972656 C 513.542969 344.054688 511.074219 352.949219 510.007812 360.140625 L 527.652344 351.222656 C 528.515625 344.03125 529.023438 336.125 528.667969 332.367188 Z M 425.296875 384.613281 L 411.796875 391.425781 C 409.789062 396.785156 407.425781 405.578125 406.484375 412.492188 L 424.152344 403.546875 C 425.015625 396.582031 425.550781 388.730469 425.296875 384.613281 Z M 321.898438 436.886719 L 308.070312 443.875 C 306.0625 449.46875 303.796875 458.132812 302.960938 464.816406 L 320.628906 455.871094 C 321.492188 449.0625 322.078125 441.285156 321.898438 436.886719 Z M 199.460938 517.140625 L 217.128906 508.195312 C 217.996094 501.5625 218.628906 493.8125 218.503906 489.160156 L 204.367188 496.304688 C 202.359375 502.121094 200.171875 510.6875 199.460938 517.140625 Z M 268.917969 482.019531 L 251.300781 490.941406 C 251.859375 484.789062 253.917969 476.328125 255.925781 470.230469 L 270.441406 462.886719 C 270.46875 467.890625 269.808594 475.589844 268.917969 482.019531 " fill-opacity="1" fill-rule="nonzero"/><path fill="#fce8bc" d="M 427.710938 70.105469 L 435.441406 86.371094 L 52.511719 268.605469 L 44.757812 252.339844 L 427.710938 70.105469 " fill-opacity="1" fill-rule="evenodd"/><path fill="#b36a5e" d="M 279.085938 140.855469 L 263.605469 148.199219 C 261.671875 155.214844 259.941406 164.082031 259.890625 169.929688 L 277.484375 161.542969 C 278.324219 155.1875 279.011719 146.878906 279.085938 140.855469 Z M 329.753906 116.738281 L 314.90625 123.804688 C 312.949219 130.335938 311.019531 139.304688 310.613281 145.785156 L 328.40625 137.324219 C 329.222656 130.511719 329.804688 122.253906 329.753906 116.738281 Z M 433.558594 82.382812 L 427.710938 70.105469 L 419.703125 73.917969 C 417.71875 80.273438 415.738281 89.320312 415.203125 96.003906 L 433.023438 87.515625 C 433.230469 85.863281 433.40625 84.160156 433.558594 82.382812 Z M 383.601562 91.097656 L 368.375 98.339844 C 366.441406 105.203125 364.609375 114.070312 364.433594 120.171875 L 382.128906 111.757812 C 382.964844 105.226562 383.578125 96.941406 383.601562 91.097656 Z M 225.214844 166.472656 L 210.136719 173.636719 C 208.207031 180.371094 206.324219 189.292969 206.046875 195.542969 L 223.789062 187.105469 C 224.628906 180.449219 225.238281 172.191406 225.214844 166.472656 Z M 120.699219 216.230469 L 105.367188 223.496094 C 103.4375 230.410156 101.65625 239.277344 101.503906 245.300781 L 119.171875 236.890625 C 120.011719 230.410156 120.648438 222.125 120.699219 216.230469 Z M 174.546875 190.589844 L 158.859375 198.058594 C 156.925781 205.226562 155.273438 214.070312 155.351562 219.660156 L 172.84375 211.351562 C 173.707031 205.125 174.417969 196.816406 174.546875 190.589844 Z M 54.113281 247.894531 L 69.980469 240.347656 C 69.828125 246.75 69.089844 255.085938 68.226562 261.132812 L 52.511719 268.605469 L 50.960938 265.328125 C 51.34375 260.167969 52.640625 253.585938 54.113281 247.894531 " fill-opacity="1" fill-rule="nonzero"/><path fill="#73a892" d="M 252.136719 153.664062 L 237.75 160.523438 C 235.789062 166.75 233.730469 175.824219 233.121094 182.660156 L 250.96875 174.171875 C 251.757812 167.132812 252.289062 158.824219 252.136719 153.664062 Z M 304.128906 128.9375 L 290.476562 135.417969 C 288.492188 141.085938 286.230469 150.386719 285.367188 157.804688 L 303.238281 149.292969 C 304 141.820312 304.460938 133.410156 304.128906 128.9375 Z M 356.628906 103.929688 L 342.542969 110.640625 C 340.558594 116.664062 338.425781 125.8125 337.714844 132.875 L 355.585938 124.386719 C 356.375 117.144531 356.855469 108.8125 356.628906 103.929688 Z M 147.621094 203.398438 L 132.953125 210.386719 C 130.996094 216.839844 129.011719 225.835938 128.554688 232.417969 L 146.351562 223.957031 C 147.164062 217.070312 147.722656 208.785156 147.621094 203.398438 Z M 76.15625 257.347656 L 94.003906 248.859375 C 94.792969 241.746094 95.328125 233.433594 95.148438 228.378906 L 80.859375 235.1875 C 78.878906 241.335938 76.792969 250.433594 76.15625 257.347656 Z M 199.636719 178.644531 L 185.65625 185.300781 C 183.671875 191.222656 181.484375 200.421875 180.75 207.589844 L 198.621094 199.078125 C 199.410156 191.78125 199.894531 183.421875 199.636719 178.644531 Z M 407.832031 99.507812 L 390.007812 107.996094 C 390.976562 100.324219 393.339844 90.871094 395.324219 85.53125 L 408.566406 79.230469 C 409 83.320312 408.59375 91.808594 407.832031 99.507812 " fill-opacity="1" fill-rule="nonzero"/><g clip-path="url(#1759c5eab4)"><path fill="#fce8bc" d="M 554.777344 337.398438 L 540.589844 344.308594 L 415.433594 75.0625 L 429.847656 69.980469 L 554.777344 337.398438 " fill-opacity="1" fill-rule="evenodd"/><path fill="#b36a5e" d="M 497.371094 214.527344 L 491.09375 201.082031 C 484.964844 199.660156 477.667969 198.492188 472.863281 198.59375 L 479.753906 213.410156 C 485.042969 214.019531 491.957031 214.476562 497.371094 214.527344 Z M 517.40625 257.398438 L 511.355469 244.464844 C 505.558594 242.988281 498.132812 241.640625 492.796875 241.464844 L 499.761719 256.484375 C 505.429688 257.066406 512.371094 257.449219 517.40625 257.398438 Z M 538.660156 302.914062 L 532.480469 289.699219 C 526.457031 288.222656 519.03125 286.980469 513.949219 286.980469 L 520.886719 301.894531 C 526.355469 302.480469 533.371094 302.914062 538.660156 302.914062 Z M 456.085938 126.117188 L 449.703125 112.46875 C 443.5 111.074219 436.304688 109.980469 431.78125 110.207031 L 438.617188 124.949219 C 443.703125 125.558594 450.542969 126.039062 456.085938 126.117188 Z M 540.589844 344.308594 L 554.777344 337.398438 L 552.769531 333.101562 C 547.101562 331.601562 539.523438 330.179688 533.90625 329.875 Z M 476.117188 169.011719 L 469.941406 155.796875 C 464.042969 154.375 456.769531 153.128906 451.6875 153.054688 L 458.652344 168.023438 C 464.09375 168.605469 470.957031 169.011719 476.117188 169.011719 Z M 434.804688 80.601562 C 429.515625 80.550781 422.78125 80.144531 417.515625 79.5625 L 415.433594 75.0625 L 429.847656 69.980469 L 434.804688 80.601562 " fill-opacity="1" fill-rule="nonzero"/></g><path fill="#73a892" d="M 528.03125 280.167969 L 522.261719 267.792969 C 516.820312 266.265625 509.269531 264.792969 503.449219 264.363281 L 510.464844 279.457031 C 516.464844 280.015625 523.457031 280.320312 528.03125 280.167969 Z M 507.3125 235.796875 L 501.667969 223.703125 C 496.480469 222.203125 488.90625 220.625 482.855469 220.09375 L 489.871094 235.1875 C 496.023438 235.722656 502.992188 236 507.3125 235.796875 Z M 548.574219 324.132812 L 543.082031 312.390625 C 538.125 310.867188 530.320312 309.1875 523.964844 308.554688 L 530.980469 323.648438 C 537.386719 324.15625 544.53125 324.410156 548.574219 324.132812 Z M 445.484375 103.421875 L 439.433594 90.488281 C 433.738281 89.039062 426.542969 87.71875 421.230469 87.488281 L 428.21875 102.535156 C 433.789062 103.09375 440.550781 103.472656 445.484375 103.421875 Z M 486.746094 191.808594 L 480.847656 179.128906 C 475.277344 177.652344 467.90625 176.253906 462.339844 175.925781 L 469.328125 190.996094 C 475.125 191.554688 481.992188 191.882812 486.746094 191.808594 Z M 448.761719 146.75 L 441.746094 131.632812 C 447.492188 132.089844 454.863281 133.535156 460.226562 135.011719 L 466.023438 147.4375 C 461.5 147.589844 454.660156 147.285156 448.761719 146.75 " fill-opacity="1" fill-rule="nonzero"/><g clip-path="url(#565ed70e9e)"><path fill="#fce8bc" d="M 187.484375 523.496094 L 173.425781 530.636719 L 44.503906 251.910156 L 60.699219 244.792969 L 187.484375 523.496094 " fill-opacity="1" fill-rule="evenodd"/></g><g clip-path="url(#555df74891)"><path fill="#b36a5e" d="M 148.410156 437.597656 L 142.640625 424.894531 C 136.742188 423.316406 128.707031 421.792969 122.988281 421.5625 L 130.003906 436.710938 C 135.976562 437.320312 143.375 437.703125 148.410156 437.597656 Z M 107.9375 348.605469 L 102.140625 335.898438 C 96.011719 334.246094 87.570312 332.671875 81.800781 332.570312 L 88.792969 347.640625 C 94.894531 348.300781 102.699219 348.707031 107.9375 348.605469 Z M 169.28125 483.46875 L 163.308594 470.304688 C 157.179688 468.78125 149.453125 467.433594 144.191406 467.410156 L 151.128906 482.425781 C 156.773438 483.039062 163.96875 483.46875 169.28125 483.46875 Z M 128.808594 394.472656 L 122.808594 381.3125 C 116.429688 379.710938 108.292969 378.3125 103.03125 378.414062 L 109.917969 393.355469 C 115.664062 394.015625 123.265625 394.472656 128.808594 394.472656 Z M 171.191406 525.78125 C 174.46875 526.113281 178.128906 526.367188 181.5625 526.492188 L 187.484375 523.496094 L 183.113281 513.886719 C 177.445312 512.363281 169.84375 510.914062 164.171875 510.609375 Z M 67.4375 259.609375 L 61.664062 246.902344 C 60.496094 246.597656 59.277344 246.292969 57.980469 245.988281 L 44.503906 251.910156 L 47.582031 258.566406 C 53.808594 259.253906 61.996094 259.710938 67.4375 259.609375 Z M 68.734375 304.257812 L 61.84375 289.417969 C 67.082031 289.191406 75.699219 290.636719 82.335938 292.316406 L 88.308594 305.453125 C 82.539062 305.480469 74.53125 304.972656 68.734375 304.257812 " fill-opacity="1" fill-rule="nonzero"/></g><path fill="#73a892" d="M 138.496094 415.796875 L 133.183594 404.132812 C 128.070312 402.480469 119.65625 400.648438 113.046875 400.066406 L 120.0625 415.289062 C 126.75 415.847656 134.351562 416.125 138.496094 415.796875 Z M 158.859375 460.523438 L 153.316406 448.347656 C 147.851562 446.75 139.84375 445.097656 133.664062 444.664062 L 140.707031 459.859375 C 146.960938 460.421875 154.308594 460.75 158.859375 460.523438 Z M 178.996094 504.789062 L 173.679688 493.101562 C 168.722656 491.550781 160.714844 489.796875 154.230469 489.136719 L 161.273438 504.332031 C 167.757812 504.867188 174.976562 505.121094 178.996094 504.789062 Z M 77.859375 282.507812 L 72.34375 270.359375 C 66.496094 268.65625 57.597656 266.851562 51.292969 266.574219 L 58.285156 281.71875 C 64.867188 282.355469 73.003906 282.761719 77.859375 282.507812 Z M 97.996094 326.800781 L 92.707031 315.136719 C 87.417969 313.433594 78.574219 311.527344 71.835938 311.019531 L 78.878906 326.214844 C 85.714844 326.824219 93.726562 327.128906 97.996094 326.800781 Z M 99.496094 370.789062 L 92.480469 355.617188 C 98.734375 355.972656 107.171875 357.703125 112.816406 359.355469 L 118.359375 371.527344 C 113.65625 371.753906 105.929688 371.398438 99.496094 370.789062 " fill-opacity="1" fill-rule="nonzero"/><path fill="#73a892" d="M 434.984375 167.207031 C 434.90625 167.4375 434.652344 167.617188 434.269531 167.742188 C 433.992188 167.820312 433.738281 167.871094 433.507812 167.84375 C 433.332031 167.515625 433.125 167.257812 432.871094 167.257812 C 432.71875 167.234375 432.390625 167.257812 432.261719 167.742188 C 432.1875 168.046875 432.289062 168.453125 432.71875 168.683594 C 432.796875 168.960938 432.898438 169.316406 432.921875 169.570312 C 433.101562 170.613281 432.871094 172.242188 432.058594 172.570312 C 432.035156 172.570312 431.984375 172.570312 431.855469 172.496094 C 431.449219 172.265625 431.015625 171.503906 430.761719 170.96875 C 430.789062 170.511719 430.789062 170.132812 430.457031 169.953125 C 430.304688 169.851562 430 169.851562 429.847656 169.953125 C 429.566406 170.105469 429.464844 170.386719 429.746094 171.121094 C 429.71875 171.273438 429.71875 171.425781 429.71875 171.527344 C 429.71875 172.164062 429.542969 172.925781 429.109375 173.128906 C 428.703125 173.332031 427.585938 172.496094 427.230469 172.214844 C 426.847656 171.9375 426.59375 171.730469 426.261719 171.9375 C 425.855469 172.191406 425.90625 172.699219 426.007812 173.460938 C 426.136719 174.273438 426.289062 175.492188 425.703125 175.746094 C 425.472656 175.824219 424.710938 175.46875 423.464844 174.65625 C 422.832031 174.222656 422.523438 174.019531 422.21875 174.324219 C 421.660156 174.78125 421.609375 175.542969 421.558594 176.253906 C 421.484375 177.296875 421.40625 177.933594 420.542969 178.238281 C 420.085938 178.441406 418.761719 177.679688 418.078125 177.296875 C 417.210938 176.789062 416.804688 176.5625 416.421875 176.789062 C 415.914062 177.121094 415.914062 177.933594 415.914062 179.152344 C 415.914062 180.21875 415.914062 181.820312 415.40625 182.277344 C 414.796875 182.785156 414.210938 182.457031 413.117188 181.71875 C 412.355469 181.1875 411.59375 180.652344 410.78125 180.804688 C 410.167969 180.90625 410.246094 181.644531 410.296875 182.429688 C 410.296875 182.53125 410.320312 182.609375 410.320312 182.660156 C 410.269531 183.574219 410.144531 184.589844 409.507812 185.125 C 408.695312 185.785156 408.085938 185.457031 407.117188 184.84375 C 406.40625 184.386719 405.617188 183.90625 404.753906 184.132812 C 404.398438 184.210938 404.347656 184.414062 404.195312 185.25 C 404.066406 185.964844 403.660156 188.148438 403.203125 188.480469 C 402.390625 189.089844 401.804688 188.605469 400.660156 187.511719 C 400.128906 186.980469 399.59375 186.472656 399.007812 186.269531 C 398.855469 186.242188 398.550781 186.269531 398.425781 186.371094 C 398.117188 186.625 398.144531 187.003906 398.167969 187.410156 C 398.195312 187.539062 398.195312 187.71875 398.167969 187.792969 C 398.144531 187.921875 398.117188 188.074219 398.09375 188.226562 C 397.992188 188.859375 397.839844 189.722656 397.40625 189.980469 C 397.027344 190.183594 396.695312 190.257812 396.414062 190.183594 C 395.78125 189.980469 395.347656 188.988281 394.964844 188.175781 C 394.914062 187.996094 394.839844 187.84375 394.761719 187.71875 C 394.839844 187.691406 394.890625 187.691406 394.964844 187.667969 L 428.21875 169.777344 C 428.347656 169.800781 428.472656 169.800781 428.601562 169.800781 C 428.90625 169.777344 429.160156 169.546875 429.160156 169.242188 L 431.984375 167.71875 C 432.261719 167.589844 432.363281 167.257812 432.261719 166.980469 L 431.269531 164.640625 C 431.855469 164.996094 432.695312 164.972656 433.507812 164.921875 C 434.246094 164.871094 435.058594 164.820312 435.289062 165.152344 C 435.390625 165.277344 435.566406 165.761719 434.984375 167.207031 Z M 393.3125 187.945312 C 393.238281 188.074219 393.109375 188.277344 393.058594 188.328125 C 391.890625 189.417969 391.40625 189.367188 391.253906 189.265625 C 390.976562 189.0625 390.925781 188.886719 390.925781 188.785156 C 390.847656 188.277344 391.433594 187.511719 391.914062 186.878906 C 392.375 186.320312 392.703125 185.863281 392.753906 185.40625 C 392.753906 185.074219 392.601562 184.871094 392.5 184.792969 C 392.167969 184.539062 391.738281 184.640625 391.332031 184.742188 C 391.179688 184.769531 390.976562 184.820312 390.875 184.820312 C 389.5 184.769531 388.789062 184.464844 388.710938 183.828125 C 388.660156 183.472656 389.296875 182.152344 389.652344 181.441406 C 390.238281 180.21875 390.441406 179.789062 390.210938 179.457031 C 389.78125 178.796875 388.890625 178.898438 388.027344 178.976562 C 386.984375 179.101562 386.222656 179.128906 385.914062 178.59375 C 385.507812 177.882812 386.09375 177.144531 387.058594 176.101562 C 387.773438 175.339844 388.40625 174.628906 388.28125 173.867188 L 394.078125 187.234375 C 393.71875 187.285156 393.515625 187.589844 393.3125 187.945312 Z M 386.476562 173.332031 C 386.347656 173.332031 386.222656 173.332031 386.222656 173.332031 C 384.339844 173.054688 383.273438 172.46875 382.890625 171.476562 C 382.507812 170.539062 383.398438 169.34375 384.085938 168.378906 C 384.695312 167.539062 385.152344 166.953125 384.925781 166.371094 C 384.667969 165.710938 383.753906 165.457031 382.585938 165.125 C 381.671875 164.871094 380.550781 164.539062 380.222656 164.082031 C 379.535156 163.09375 380.117188 161.746094 380.78125 160.574219 L 380.933594 160.347656 C 381.441406 159.585938 381.695312 159.203125 381.796875 158.949219 L 388.128906 173.535156 C 387.925781 173.359375 387.492188 173.332031 386.476562 173.332031 Z M 379.710938 157.804688 C 378.949219 157.703125 378.007812 157.601562 377.628906 157.246094 C 376.636719 156.28125 376.992188 155.367188 377.628906 153.996094 C 378.085938 153.078125 378.515625 152.164062 378.085938 151.300781 C 377.679688 150.488281 376.636719 150.410156 375.566406 150.335938 C 374.550781 150.257812 373.507812 150.183594 373.128906 149.523438 C 372.59375 148.65625 373.078125 148.148438 374.324219 147.234375 C 375.085938 146.648438 375.875 146.066406 375.796875 145.175781 L 381.515625 158.367188 C 381.136719 158.007812 380.476562 157.90625 379.710938 157.804688 Z M 373.179688 143.269531 C 372.671875 143.066406 372.085938 142.8125 371.933594 142.6875 C 371.449219 142.253906 370.40625 141.109375 371.144531 139.636719 C 371.296875 139.433594 371.957031 138.773438 372.363281 138.46875 C 372.441406 138.519531 372.515625 138.542969 372.59375 138.570312 C 372.59375 138.570312 372.621094 138.570312 372.644531 138.570312 C 372.746094 138.570312 372.773438 138.441406 372.847656 138.367188 L 375.746094 145.023438 C 375.542969 144.363281 374.679688 143.90625 373.179688 143.269531 Z M 371.957031 135.722656 C 372.109375 135.722656 372.570312 136.054688 372.773438 136.207031 C 373.101562 136.433594 373.382812 136.5625 373.636719 136.585938 L 372.847656 137.019531 C 372.722656 137.09375 372.773438 137.246094 372.722656 137.375 C 372.722656 137.375 372.695312 137.375 372.695312 137.375 C 372.671875 137.347656 372.621094 137.347656 372.570312 137.347656 C 372.261719 137.019531 371.933594 136.484375 371.90625 136.078125 C 371.882812 135.851562 371.984375 135.746094 371.957031 135.722656 Z M 413.246094 146.292969 C 413.167969 145.8125 413.5 145.378906 413.882812 145.125 C 414.261719 144.820312 414.847656 144.640625 415.253906 144.871094 C 416.195312 145.40625 416.628906 146.523438 416.421875 147.871094 C 416.195312 149.292969 415.332031 150.4375 414.3125 150.765625 C 414.617188 149.597656 414.289062 148.125 413.269531 146.394531 C 413.269531 146.34375 413.246094 146.320312 413.246094 146.292969 Z M 417.644531 163.144531 C 417.695312 163.167969 417.746094 163.21875 417.820312 163.246094 C 418 163.320312 418.152344 163.320312 418.28125 163.246094 C 419.269531 163.652344 421.050781 165.046875 422.523438 166.191406 C 424.304688 167.566406 425.703125 168.605469 426.769531 169.191406 L 398.984375 184.160156 C 399.261719 183.523438 399.566406 182.609375 400 181.363281 L 400.40625 180.398438 C 401.832031 177.347656 403.152344 174.476562 405.238281 171.859375 C 408.59375 167.617188 413.703125 163.320312 417.644531 163.144531 Z M 392.144531 140.628906 C 392.144531 140.628906 392.167969 140.628906 392.167969 140.628906 C 392.527344 140.804688 392.90625 140.933594 393.3125 141.058594 C 394.382812 141.390625 395.476562 141.617188 396.566406 141.71875 C 397.484375 141.796875 398.375 141.820312 399.261719 141.820312 C 400.050781 141.820312 400.863281 141.847656 401.679688 141.921875 C 402.109375 141.949219 402.566406 142 403 142.050781 C 404.957031 142.277344 406.941406 142.507812 408.820312 141.695312 C 408.949219 141.871094 409.101562 142.074219 409.253906 142.304688 C 409.304688 142.378906 409.355469 142.429688 409.382812 142.480469 L 409.636719 142.964844 C 410.042969 143.675781 410.421875 144.414062 410.957031 145.074219 C 413.398438 148.226562 413.449219 149.878906 413.09375 150.691406 C 412.609375 151.757812 411.160156 152.011719 410.347656 152.0625 C 408.414062 152.164062 406.609375 151.503906 406.304688 150.996094 C 406.230469 150.867188 406.078125 150.765625 405.925781 150.742188 C 406.914062 149.546875 407.371094 147.160156 406.8125 145.53125 C 406.40625 144.386719 405.515625 143.753906 404.398438 143.804688 C 403.152344 143.855469 402.261719 144.921875 401.933594 145.964844 C 401.90625 146.066406 401.882812 146.191406 401.855469 146.445312 C 401.855469 146.625 401.832031 146.800781 401.804688 146.929688 C 401.804688 146.929688 401.804688 146.929688 401.804688 146.953125 C 398.78125 148.402344 395.015625 148.328125 392.195312 146.699219 C 391.6875 146.421875 391.28125 145.988281 390.875 145.558594 C 390.59375 145.304688 390.363281 145.023438 390.058594 144.792969 C 390.441406 143.574219 391 142.355469 391.6875 141.261719 C 391.890625 140.957031 392.042969 140.753906 392.144531 140.628906 Z M 407.703125 137.730469 C 408.339844 138.1875 408.898438 137.449219 409.40625 136.816406 C 409.40625 136.816406 409.433594 136.816406 409.433594 136.816406 C 409.355469 137.703125 409.179688 138.621094 408.976562 139.585938 C 408.871094 139.914062 408.820312 140.195312 408.769531 140.425781 C 407.066406 141.339844 405.160156 141.109375 403.128906 140.882812 C 402.667969 140.832031 402.210938 140.78125 401.78125 140.753906 C 400.941406 140.679688 400.101562 140.652344 399.261719 140.652344 C 398.425781 140.628906 397.535156 140.628906 396.695312 140.550781 C 395.679688 140.449219 394.636719 140.246094 393.667969 139.941406 C 393.3125 139.839844 392.957031 139.710938 392.730469 139.609375 C 392.375 139.382812 392.117188 139.304688 391.941406 139.304688 L 391.941406 139.128906 C 391.914062 138.570312 391.941406 137.984375 391.941406 137.398438 C 391.964844 136.816406 391.914062 136.179688 391.863281 135.519531 C 391.839844 135.085938 391.8125 134.65625 391.789062 134.25 C 391.789062 134.25 391.789062 134.273438 391.789062 134.273438 C 392.855469 135.851562 393.492188 136.5625 394.152344 136.460938 C 394.660156 136.359375 394.992188 135.902344 395.21875 135.570312 L 395.347656 135.417969 C 395.882812 134.730469 396.339844 133.96875 396.769531 133.257812 L 397.230469 132.519531 C 397.28125 132.394531 397.332031 132.292969 397.382812 132.214844 C 397.433594 132.292969 397.457031 132.367188 397.484375 132.417969 C 397.636719 132.773438 397.789062 133.15625 397.964844 133.535156 C 398.21875 134.148438 398.476562 134.757812 398.832031 135.492188 C 399.007812 135.925781 399.289062 136.5625 399.847656 136.6875 C 400.507812 136.789062 400.914062 136.257812 401.296875 135.773438 C 402.035156 134.933594 402.617188 133.96875 403.203125 133.054688 L 403.253906 132.953125 C 403.28125 132.925781 403.28125 132.925781 403.28125 132.925781 L 403.457031 133.484375 C 403.609375 134.070312 403.789062 134.628906 403.964844 135.289062 C 404.117188 135.773438 404.21875 136.179688 404.601562 136.359375 C 405.085938 136.535156 405.464844 136.15625 405.925781 135.746094 C 406.050781 135.644531 406.203125 135.492188 406.355469 135.339844 C 406.609375 135.136719 406.992188 134.78125 407.296875 134.578125 C 407.296875 134.605469 407.296875 134.65625 407.296875 134.679688 C 407.296875 134.78125 407.296875 134.960938 407.269531 135.164062 C 407.167969 136.359375 407.144531 137.324219 407.703125 137.730469 Z M 408.667969 156.332031 C 408.492188 156.050781 408.136719 155.976562 407.855469 156.15625 C 407.042969 156.664062 406.101562 157.550781 405.136719 158.46875 C 402.59375 160.855469 399.695312 163.574219 397.304688 162.125 C 396.71875 161.769531 396.414062 161.136719 396.058594 160.472656 C 395.703125 159.789062 395.324219 159.050781 394.609375 158.542969 C 394.101562 158.1875 393.492188 158.085938 392.90625 157.984375 C 392.296875 157.882812 391.761719 157.78125 391.484375 157.425781 C 391.203125 157.042969 391.457031 156.105469 391.6875 155.316406 C 391.863281 154.707031 392.042969 154.148438 392.015625 153.636719 C 391.964844 152.34375 391.332031 151.402344 390.71875 150.511719 C 390.390625 150.03125 390.085938 149.574219 389.855469 149.039062 C 389.449219 148.125 389.550781 147.03125 389.730469 146.089844 C 389.832031 146.167969 389.933594 146.269531 390.035156 146.371094 C 390.464844 146.828125 390.949219 147.335938 391.609375 147.71875 C 395.015625 149.675781 399.644531 149.597656 403.101562 147.566406 C 403.40625 147.414062 403.484375 147.054688 403.332031 146.777344 C 403.253906 146.648438 403.152344 146.574219 403.027344 146.523438 C 403.050781 146.421875 403.050781 146.34375 403.050781 146.320312 C 403.253906 145.710938 403.789062 145 404.449219 144.972656 C 404.855469 145 405.390625 145.050781 405.695312 145.914062 C 406.203125 147.363281 405.59375 149.625 404.804688 150.207031 C 404.550781 150.410156 404.476562 150.765625 404.679688 151.019531 C 404.804688 151.199219 405.007812 151.300781 405.210938 151.273438 C 405.210938 151.375 405.238281 151.503906 405.3125 151.605469 C 406.027344 152.773438 408.59375 153.359375 410.421875 153.230469 C 410.628906 153.207031 410.832031 153.207031 411.035156 153.179688 C 410.957031 153.460938 411.085938 153.84375 411.1875 154.148438 C 411.390625 154.832031 411.667969 155.570312 412.027344 156.382812 C 413.21875 159 414.566406 160.90625 416.144531 162.175781 C 413.066406 162.890625 409.789062 165.328125 407.09375 168.023438 C 406.914062 166.472656 405.898438 164.640625 405.261719 163.5 L 405.109375 163.21875 C 404.703125 162.457031 404.371094 161.898438 404.015625 161.390625 C 403.964844 161.3125 403.890625 161.261719 403.839844 161.238281 C 404.578125 160.601562 405.261719 159.941406 405.925781 159.332031 C 406.863281 158.441406 407.78125 157.601562 408.492188 157.144531 C 408.769531 156.96875 408.820312 156.613281 408.667969 156.332031 Z M 410.578125 118.417969 L 418.382812 137.019531 C 418.382812 137.070312 418.28125 137.121094 418.304688 137.171875 C 418.332031 137.273438 418.457031 137.246094 418.507812 137.324219 L 422.730469 147.3125 C 422.578125 147.488281 422.5 147.691406 422.601562 147.871094 C 422.730469 148.097656 422.882812 148.148438 423.058594 148.125 L 424.6875 151.988281 C 424.660156 152.164062 424.6875 152.316406 424.710938 152.367188 C 424.761719 152.445312 424.839844 152.417969 424.890625 152.445312 L 430.964844 166.953125 L 428.042969 168.503906 C 426.921875 168.097656 424.914062 166.546875 423.261719 165.253906 C 420.667969 163.269531 419.015625 162.023438 417.921875 161.972656 C 416.042969 160.90625 414.464844 158.925781 413.117188 155.898438 C 412.761719 155.136719 412.507812 154.453125 412.304688 153.789062 C 412.28125 153.6875 412.203125 153.484375 412.179688 153.382812 C 412.203125 153.28125 412.203125 153.15625 412.152344 153.054688 C 412.128906 153.003906 412.101562 152.976562 412.050781 152.925781 C 412.789062 152.671875 413.371094 152.292969 413.78125 151.785156 C 413.90625 151.9375 414.136719 152.011719 414.339844 151.960938 C 416.195312 151.582031 417.3125 149.726562 417.566406 148.046875 C 417.847656 146.21875 417.1875 144.617188 415.839844 143.855469 C 415.078125 143.421875 414.035156 143.550781 413.167969 144.160156 C 412.839844 144.414062 412.558594 144.71875 412.382812 145.023438 C 412.230469 144.792969 412.050781 144.589844 411.871094 144.363281 C 411.414062 143.753906 411.058594 143.09375 410.679688 142.40625 L 410.398438 141.921875 C 410.398438 141.871094 410.296875 141.746094 410.195312 141.59375 C 410.117188 141.492188 409.992188 141.3125 409.863281 141.136719 C 409.914062 141.035156 409.914062 140.933594 409.890625 140.832031 C 409.914062 140.628906 410.042969 140.09375 410.117188 139.738281 C 410.320312 138.796875 410.527344 137.804688 410.601562 136.789062 L 410.601562 136.636719 C 410.652344 136.230469 410.703125 135.644531 410.347656 135.265625 C 410.21875 135.136719 409.914062 134.984375 409.789062 135.035156 C 409.304688 135.0625 408.949219 135.519531 408.492188 136.105469 C 408.464844 136.128906 408.414062 136.179688 408.390625 136.230469 C 408.390625 135.875 408.414062 135.46875 408.441406 135.265625 C 408.464844 135.011719 408.464844 134.78125 408.464844 134.605469 C 408.492188 134.300781 408.492188 133.816406 408.1875 133.484375 C 408.007812 133.332031 407.804688 133.257812 407.578125 133.28125 C 406.839844 133.308594 406.128906 133.96875 405.566406 134.503906 C 405.441406 134.628906 405.289062 134.730469 405.210938 134.808594 C 405.1875 134.832031 405.136719 134.882812 405.109375 134.910156 C 405.085938 134.882812 405.085938 134.859375 405.085938 134.832031 C 404.882812 134.300781 404.730469 133.742188 404.578125 133.179688 L 404.371094 132.46875 C 404.269531 131.910156 404.09375 131.121094 403.457031 131.121094 C 403.457031 131.121094 403.457031 131.121094 403.433594 131.121094 C 402.925781 131.121094 402.617188 131.65625 402.363281 132.140625 L 402.210938 132.445312 C 401.628906 133.359375 401.09375 134.222656 400.40625 135.011719 L 400.304688 135.136719 C 400.253906 135.1875 400.179688 135.316406 400.078125 135.417969 C 400 135.265625 399.925781 135.085938 399.898438 135.011719 L 399.820312 134.859375 C 399.542969 134.273438 399.289062 133.664062 399.035156 133.078125 C 398.882812 132.699219 398.703125 132.316406 398.550781 131.910156 C 398.527344 131.886719 398.5 131.808594 398.476562 131.757812 C 398.324219 131.378906 398.117188 130.84375 397.660156 130.691406 C 397.050781 130.488281 396.566406 131.25 396.136719 132.0625 L 395.78125 132.648438 C 395.347656 133.332031 394.914062 134.070312 394.433594 134.707031 L 394.28125 134.882812 C 394.203125 134.960938 394.101562 135.136719 394 135.238281 C 393.773438 135.035156 393.363281 134.503906 392.78125 133.613281 C 392.679688 133.460938 392.578125 133.332031 392.5 133.230469 L 392.375 133.054688 C 391.585938 132.113281 391.507812 132.039062 391.128906 132.140625 C 390.925781 132.191406 390.746094 132.394531 390.71875 132.597656 C 390.542969 133.511719 390.617188 134.578125 390.695312 135.59375 C 390.746094 136.207031 390.796875 136.816406 390.773438 137.375 C 390.773438 137.957031 390.746094 138.570312 390.773438 139.152344 L 390.773438 139.40625 C 390.773438 139.789062 390.773438 140.117188 390.898438 140.324219 C 390.847656 140.425781 390.773438 140.527344 390.695312 140.628906 C 389.855469 141.949219 389.21875 143.421875 388.8125 144.898438 C 388.484375 146.117188 388.101562 147.945312 388.789062 149.523438 C 389.042969 150.132812 389.398438 150.664062 389.753906 151.171875 C 390.3125 152.011719 390.796875 152.722656 390.847656 153.6875 C 390.847656 153.996094 390.71875 154.503906 390.566406 154.984375 C 390.238281 156.078125 389.90625 157.296875 390.566406 158.160156 C 391.128906 158.847656 391.964844 159 392.703125 159.128906 C 393.1875 159.203125 393.644531 159.304688 393.925781 159.507812 C 394.40625 159.839844 394.710938 160.421875 395.015625 161.035156 C 395.398438 161.769531 395.855469 162.609375 396.695312 163.117188 C 398.832031 164.386719 400.964844 163.421875 402.976562 161.921875 C 403 161.972656 403.027344 162.023438 403.050781 162.074219 C 403.382812 162.53125 403.710938 163.066406 404.066406 163.753906 L 404.246094 164.082031 C 404.832031 165.152344 406.40625 167.972656 405.820312 169.113281 C 405.769531 169.214844 405.746094 169.316406 405.769531 169.417969 C 405.238281 170.003906 404.753906 170.589844 404.320312 171.148438 C 402.160156 173.867188 400.789062 176.789062 399.339844 179.914062 L 399.007812 180.625 C 399.007812 180.625 398.957031 180.777344 398.882812 181.007812 C 398.042969 183.523438 397.636719 184.386719 397.433594 184.667969 C 397.304688 184.691406 397.203125 184.742188 397.101562 184.820312 C 396.976562 184.945312 396.898438 185.125 396.925781 185.277344 L 394.964844 186.320312 L 373.863281 137.804688 Z M 374.273438 134.960938 C 374.121094 133.664062 374.070312 133.257812 375.722656 132.824219 C 375.746094 132.824219 375.746094 132.824219 375.773438 132.824219 C 376.179688 132.824219 377.347656 133.382812 377.804688 133.589844 C 378.1875 133.792969 378.441406 133.894531 378.644531 133.96875 L 374.171875 136.332031 C 374.246094 136.207031 374.375 136.179688 374.347656 135.925781 C 374.324219 135.59375 374.296875 135.265625 374.273438 134.960938 Z M 379.457031 132.699219 C 379.433594 132.011719 379.433594 130.894531 379.964844 130.664062 C 380.449219 130.460938 380.882812 130.742188 381.542969 131.222656 C 381.898438 131.480469 382.28125 131.683594 382.6875 131.808594 L 379.304688 133.613281 C 379.40625 133.382812 379.457031 133.105469 379.457031 132.699219 Z M 384.363281 128.605469 C 385.203125 128.046875 386.246094 127.871094 387.058594 128.175781 C 387.1875 128.25 387.898438 128.683594 388.230469 128.886719 L 383.804688 131.222656 C 383.804688 130.996094 383.730469 130.765625 383.652344 130.488281 C 383.578125 130.335938 383.5 130.082031 383.5 129.980469 C 383.5 129.320312 384.035156 128.835938 384.363281 128.605469 Z M 388.992188 125.761719 C 389.652344 125.203125 390.925781 125.507812 391.609375 125.734375 C 391.710938 125.761719 391.941406 125.964844 392.09375 126.066406 C 392.324219 126.269531 392.550781 126.394531 392.78125 126.472656 L 389.246094 128.351562 C 389.195312 128.097656 389.066406 127.84375 388.890625 127.617188 C 388.8125 127.515625 388.6875 127.335938 388.660156 127.261719 C 388.535156 126.75 388.609375 126.066406 388.992188 125.761719 Z M 394.203125 122.507812 C 394.738281 122.152344 395.578125 122.40625 396.492188 122.636719 C 397.355469 122.863281 398.246094 123.117188 399.058594 122.890625 C 399.949219 122.660156 399.746094 121.644531 399.59375 120.984375 C 399.515625 120.652344 399.390625 120.042969 399.492188 119.914062 C 400 119.355469 400.636719 119.636719 401.855469 120.449219 C 402.261719 120.703125 402.667969 120.957031 403.027344 121.085938 L 393.695312 126.015625 C 393.773438 125.632812 393.695312 125.203125 393.59375 124.796875 C 393.515625 124.464844 393.441406 124.109375 393.492188 123.855469 C 393.644531 123.167969 393.875 122.710938 394.203125 122.507812 Z M 403.230469 117.222656 C 403.40625 116.867188 403.609375 116.664062 403.890625 116.613281 C 404.628906 116.433594 405.71875 117.144531 406.710938 117.753906 C 407.144531 118.035156 407.550781 118.289062 407.933594 118.492188 L 403.789062 120.679688 C 403.8125 120.425781 403.738281 120.144531 403.535156 119.8125 C 403.457031 119.636719 403.332031 119.40625 403.304688 119.304688 C 403.128906 118.644531 402.925781 117.808594 403.230469 117.222656 Z M 410.476562 115.492188 C 410.679688 115.367188 410.957031 115.367188 411.339844 115.492188 C 411.847656 115.648438 412.484375 116.15625 412.738281 116.714844 C 412.863281 116.992188 412.890625 117.273438 412.789062 117.5 C 412.636719 117.882812 412.253906 118.265625 411.898438 118.570312 L 411.390625 117.375 C 411.339844 117.222656 411.210938 117.09375 411.058594 117.042969 C 410.90625 116.992188 410.730469 116.992188 410.578125 117.070312 L 409.863281 117.476562 C 409.914062 116.765625 410.015625 115.800781 410.476562 115.492188 Z M 415.839844 120.09375 C 416.09375 121.007812 415.28125 122.125 414.695312 122.914062 C 414.566406 123.066406 414.289062 123.347656 414.058594 123.574219 C 414.035156 123.574219 414.035156 123.601562 414.035156 123.601562 L 412.382812 119.710938 C 412.609375 119.660156 412.839844 119.585938 413.042969 119.535156 C 415.203125 118.925781 415.6875 119.558594 415.839844 120.09375 Z M 417.617188 124.3125 C 417.898438 124.464844 418.050781 124.695312 418.078125 125.050781 C 418.128906 125.683594 417.289062 127.082031 416.730469 127.996094 C 416.472656 128.378906 416.371094 128.605469 416.21875 128.859375 L 414.464844 124.667969 C 415.203125 124.234375 416.804688 123.929688 417.617188 124.3125 Z M 418.050781 130.691406 C 418.941406 130.664062 419.5 130.640625 420.414062 131.734375 C 421.382812 132.851562 421.382812 134.351562 420.441406 135.417969 C 420.210938 135.695312 419.753906 135.976562 419.320312 136.207031 L 416.957031 130.589844 C 417.339844 130.640625 417.746094 130.714844 418.050781 130.691406 Z M 423.289062 138.1875 C 423.464844 139.128906 422.804688 140.042969 421.304688 140.933594 L 419.855469 137.476562 C 421.457031 137.398438 423.160156 137.550781 423.289062 138.1875 Z M 426.007812 143.652344 C 426.492188 144.820312 425.167969 145.761719 423.695312 146.625 L 421.738281 141.949219 C 421.738281 141.949219 421.761719 141.949219 421.761719 141.949219 C 423.1875 141.71875 425.449219 142.203125 426.007812 143.652344 Z M 427.839844 147.515625 C 428.042969 147.742188 428.144531 147.945312 428.117188 148.199219 C 428.042969 149.089844 426.59375 150.207031 425.730469 150.894531 C 425.652344 150.945312 425.628906 150.96875 425.550781 151.046875 L 424.128906 147.667969 C 424.40625 147.515625 424.710938 147.414062 424.863281 147.363281 C 426.289062 146.953125 427.382812 147.003906 427.839844 147.515625 Z M 427.382812 151.960938 C 428.730469 151.835938 430.535156 152.164062 431.042969 153.433594 C 431.652344 154.933594 430.355469 156.5625 429.542969 157.375 C 429.3125 157.628906 428.90625 157.933594 428.550781 158.1875 L 426.109375 152.367188 C 426.136719 152.34375 426.160156 152.34375 426.1875 152.34375 C 426.59375 152.191406 427.128906 151.988281 427.382812 151.960938 Z M 433.023438 159.40625 C 433.6875 160.21875 433.40625 161.59375 432.769531 162.378906 C 432.617188 162.53125 432.238281 162.734375 431.933594 162.914062 C 431.421875 163.167969 431.042969 163.421875 430.914062 163.804688 L 429.007812 159.253906 C 429.3125 159.152344 429.667969 159.050781 429.921875 159 C 431.167969 158.773438 432.390625 158.644531 433.023438 159.40625 Z M 436.101562 164.539062 C 435.542969 163.777344 434.472656 163.855469 433.457031 163.929688 C 433 163.957031 432.515625 163.980469 432.160156 163.929688 C 432.261719 163.878906 432.339844 163.828125 432.390625 163.804688 C 432.820312 163.574219 433.28125 163.347656 433.535156 163.015625 C 434.449219 161.898438 434.804688 159.992188 433.8125 158.773438 C 432.921875 157.703125 431.5 157.753906 430.457031 157.882812 C 432.035156 156.207031 432.566406 154.503906 431.984375 153.054688 C 431.269531 151.273438 429.058594 150.816406 427.28125 150.96875 C 427.28125 150.96875 427.253906 150.96875 427.253906 150.96875 C 428.167969 150.207031 429.035156 149.292969 429.109375 148.277344 C 429.160156 147.742188 428.984375 147.261719 428.574219 146.828125 C 427.992188 146.191406 427.074219 146.015625 426.1875 146.089844 C 426.921875 145.328125 427.40625 144.386719 426.949219 143.269531 C 426.339844 141.746094 424.609375 141.058594 423.058594 140.933594 C 424.074219 140.015625 424.484375 139.050781 424.28125 138.007812 C 424.050781 136.765625 422.320312 136.460938 420.847656 136.433594 C 420.972656 136.308594 421.101562 136.207031 421.203125 136.105469 C 422.472656 134.65625 422.449219 132.597656 421.179688 131.070312 C 419.957031 129.625 418.992188 129.675781 418.027344 129.699219 C 417.644531 129.699219 417.3125 129.726562 416.933594 129.648438 C 417.085938 129.34375 417.363281 128.886719 417.59375 128.503906 C 418.304688 127.3125 419.167969 125.914062 419.066406 124.972656 C 419.015625 124.261719 418.6875 123.726562 418.078125 123.421875 C 417.390625 123.09375 416.527344 123.066406 415.710938 123.21875 C 416.371094 122.304688 417.160156 121.058594 416.804688 119.8125 C 416.527344 118.898438 415.710938 117.933594 413.421875 118.390625 C 413.550781 118.238281 413.652344 118.0625 413.703125 117.910156 C 413.933594 117.398438 413.90625 116.839844 413.652344 116.308594 C 413.246094 115.390625 412.355469 114.757812 411.667969 114.527344 C 410.984375 114.300781 410.398438 114.324219 409.914062 114.65625 C 409.050781 115.214844 408.921875 116.5625 408.847656 117.425781 C 408.820312 117.550781 408.820312 117.679688 408.796875 117.78125 C 408.390625 117.652344 407.78125 117.246094 407.246094 116.917969 C 406.078125 116.179688 404.78125 115.289062 403.636719 115.621094 C 403.101562 115.773438 402.667969 116.15625 402.339844 116.738281 C 401.855469 117.652344 402.109375 118.722656 402.3125 119.535156 C 401.296875 118.875 399.820312 117.984375 398.730469 119.253906 C 398.296875 119.761719 398.449219 120.527344 398.601562 121.210938 C 398.652344 121.464844 398.753906 121.898438 398.804688 121.921875 C 398.246094 122.074219 397.484375 121.871094 396.746094 121.667969 C 395.679688 121.363281 394.585938 121.085938 393.667969 121.644531 C 393.085938 122 392.703125 122.660156 392.5 123.652344 C 392.425781 124.109375 392.527344 124.59375 392.601562 125.023438 C 392.628906 125.101562 392.652344 125.175781 392.652344 125.226562 C 392.425781 125.050781 392.167969 124.847656 391.941406 124.769531 C 390.847656 124.414062 389.347656 124.183594 388.355469 124.972656 C 387.644531 125.53125 387.515625 126.574219 387.644531 127.363281 C 387.492188 127.261719 387.464844 127.234375 387.441406 127.234375 C 386.246094 126.828125 384.898438 127.03125 383.78125 127.792969 C 382.941406 128.378906 382.484375 129.140625 382.484375 129.980469 C 382.484375 130.234375 382.585938 130.511719 382.6875 130.765625 C 382.507812 130.664062 382.332031 130.539062 382.152344 130.410156 C 381.515625 129.929688 380.628906 129.269531 379.558594 129.75 C 378.414062 130.234375 378.414062 131.785156 378.441406 132.699219 C 378.441406 132.722656 378.441406 132.75 378.441406 132.773438 C 378.363281 132.75 378.289062 132.722656 378.238281 132.699219 C 377.042969 132.113281 376.078125 131.707031 375.464844 131.835938 C 372.976562 132.496094 373.101562 133.742188 373.253906 135.0625 C 373.28125 135.164062 373.28125 135.238281 373.304688 135.316406 C 372.695312 134.910156 371.933594 134.402344 371.347656 134.933594 C 371.015625 135.238281 370.863281 135.644531 370.890625 136.128906 C 370.941406 136.714844 371.246094 137.324219 371.628906 137.78125 C 370.941406 138.289062 370.304688 139.078125 370.253906 139.152344 C 369.542969 140.601562 369.898438 142.253906 371.273438 143.449219 C 371.527344 143.675781 372.007812 143.878906 372.773438 144.210938 C 373.382812 144.464844 374.679688 145 374.832031 145.253906 C 374.855469 145.582031 374.246094 146.039062 373.710938 146.421875 C 372.722656 147.183594 371.222656 148.300781 372.261719 150.054688 C 372.925781 151.148438 374.273438 151.25 375.492188 151.324219 C 376.203125 151.402344 377.042969 151.453125 377.171875 151.757812 C 377.398438 152.164062 377.09375 152.800781 376.738281 153.535156 C 376.152344 154.757812 375.363281 156.410156 376.941406 157.957031 C 377.550781 158.570312 378.621094 158.695312 379.585938 158.796875 C 379.890625 158.847656 380.347656 158.898438 380.652344 158.976562 C 380.449219 159.253906 380.222656 159.609375 380.117188 159.761719 C 379.992188 159.914062 379.941406 160.015625 379.914062 160.066406 C 379.40625 160.957031 378.261719 163.015625 379.40625 164.667969 C 379.914062 165.40625 381.136719 165.761719 382.304688 166.089844 C 382.890625 166.242188 383.855469 166.523438 383.957031 166.675781 C 383.957031 166.851562 383.550781 167.386719 383.273438 167.792969 C 382.457031 168.886719 381.363281 170.386719 381.949219 171.859375 C 382.738281 173.839844 385.253906 174.199219 386.09375 174.324219 C 386.117188 174.324219 386.273438 174.351562 386.476562 174.351562 C 386.628906 174.351562 386.933594 174.351562 387.1875 174.351562 C 387.007812 174.679688 386.628906 175.085938 386.324219 175.417969 C 385.433594 176.382812 384.210938 177.679688 385.027344 179.101562 C 385.710938 180.269531 387.136719 180.09375 388.152344 179.992188 C 388.433594 179.964844 388.941406 179.914062 389.21875 179.941406 C 389.117188 180.21875 388.890625 180.652344 388.738281 181.007812 C 388.050781 182.40625 387.617188 183.347656 387.695312 183.980469 C 387.875 185.148438 388.914062 185.761719 390.824219 185.835938 C 391.027344 185.863281 391.28125 185.785156 391.507812 185.734375 C 391.382812 185.914062 391.230469 186.117188 391.128906 186.269531 C 390.492188 187.082031 389.78125 187.996094 389.933594 188.9375 C 389.984375 189.394531 390.238281 189.773438 390.667969 190.082031 C 391.8125 190.894531 393.238281 189.546875 393.746094 189.039062 C 393.875 188.9375 393.976562 188.785156 394.078125 188.632812 C 394.507812 189.597656 395.042969 190.792969 396.109375 191.148438 C 396.289062 191.199219 396.464844 191.222656 396.644531 191.222656 C 397.050781 191.222656 397.484375 191.097656 397.914062 190.84375 C 398.753906 190.359375 398.933594 189.265625 399.085938 188.378906 L 399.160156 187.996094 C 399.1875 187.84375 399.1875 187.691406 399.1875 187.539062 C 399.441406 187.71875 399.695312 187.972656 399.949219 188.226562 C 400.914062 189.164062 402.210938 190.460938 403.8125 189.292969 C 404.527344 188.757812 404.882812 187.105469 405.1875 185.429688 C 405.210938 185.300781 405.238281 185.175781 405.261719 185.074219 C 405.667969 185.097656 406.078125 185.378906 406.585938 185.683594 C 407.476562 186.269531 408.71875 187.03125 410.144531 185.914062 C 411.058594 185.148438 411.238281 183.929688 411.3125 182.710938 C 411.3125 182.660156 411.3125 182.507812 411.289062 182.328125 C 411.289062 182.226562 411.261719 182 411.261719 181.820312 C 411.644531 181.921875 412.101562 182.226562 412.535156 182.53125 C 413.527344 183.21875 414.820312 184.109375 416.066406 183.015625 C 416.933594 182.277344 416.933594 180.625 416.933594 179.152344 C 416.933594 178.695312 416.933594 178.109375 416.933594 177.804688 C 417.109375 177.90625 417.363281 178.035156 417.566406 178.160156 C 418.609375 178.773438 419.933594 179.507812 420.871094 179.203125 C 422.421875 178.671875 422.5 177.324219 422.578125 176.332031 C 422.601562 175.949219 422.601562 175.59375 422.703125 175.339844 C 422.753906 175.390625 422.832031 175.441406 422.90625 175.492188 C 424.203125 176.332031 425.347656 176.992188 426.085938 176.6875 C 427.40625 176.128906 427.152344 174.453125 427.023438 173.332031 C 427.023438 173.332031 427.023438 173.308594 427.023438 173.308594 C 427.761719 173.839844 428.78125 174.425781 429.566406 174.042969 C 430.152344 173.738281 430.433594 173.179688 430.585938 172.648438 C 431.167969 173.433594 431.855469 173.714844 432.441406 173.511719 C 433.914062 172.925781 434.144531 170.742188 433.941406 169.417969 C 433.914062 169.242188 433.863281 169.039062 433.8125 168.835938 C 434.652344 168.785156 435.59375 168.402344 435.921875 167.566406 C 436.484375 166.117188 436.535156 165.152344 436.101562 164.539062 Z M 349.941406 299.203125 C 347.855469 299.8125 345.824219 300.117188 343.917969 299.988281 C 342.976562 299.9375 342.367188 299.609375 342.085938 298.972656 C 341.628906 297.957031 342.035156 296.253906 343.050781 294.933594 C 343.917969 293.789062 345.035156 293.152344 346.078125 293.152344 C 346.203125 293.152344 346.355469 293.152344 346.484375 293.179688 C 348.367188 293.484375 349.457031 294.375 349.890625 295.898438 C 350.171875 296.863281 350.171875 297.984375 349.941406 299.203125 Z M 380.703125 280.117188 C 378.3125 280.550781 375.925781 282.710938 373.789062 284.589844 C 373.027344 285.300781 372.261719 285.988281 371.628906 286.46875 L 371.375 286.648438 C 366.238281 290.511719 358.484375 296.332031 351.160156 298.820312 C 351.339844 297.652344 351.3125 296.535156 351.035156 295.566406 C 350.476562 293.636719 348.976562 292.390625 346.6875 292.035156 C 345.109375 291.78125 343.382812 292.570312 342.109375 294.222656 C 340.816406 295.925781 340.355469 298.035156 341.019531 299.457031 C 341.347656 300.191406 342.109375 301.058594 343.867188 301.160156 C 345.746094 301.285156 347.679688 301.007812 349.636719 300.5 C 348.367188 305.125 344.78125 310.433594 343.128906 311.859375 C 337.355469 316.8125 331.738281 316.128906 325.789062 315.390625 C 321.722656 314.882812 317.476562 314.375 313.101562 315.746094 C 310.636719 316.535156 309.035156 318.566406 307.484375 320.550781 C 305.652344 322.863281 303.949219 325.023438 301.078125 325.074219 C 301.050781 325.074219 301.027344 325.074219 301 325.074219 C 299.070312 325.074219 297.289062 323.800781 295.5625 322.582031 C 293.601562 321.183594 291.519531 319.683594 289.179688 320.066406 C 286 320.472656 284.628906 324.691406 283.714844 327.460938 C 283.613281 327.816406 283.484375 328.148438 283.382812 328.453125 C 282.925781 329.75 282.492188 331.273438 282.011719 332.898438 C 280.410156 338.464844 278.425781 345.378906 274.257812 347.96875 C 272.042969 349.367188 269.65625 347.691406 266.910156 345.757812 C 264.289062 343.902344 261.570312 341.996094 258.59375 342.683594 C 247.585938 345.199219 240.722656 364.308594 237.390625 373.507812 L 237.238281 373.941406 C 235.6875 378.261719 234.542969 382.125 233.707031 385.757812 C 233.453125 386.875 233.171875 388.199219 233.042969 389.542969 C 233.042969 389.570312 232.992188 392.289062 233.503906 392.644531 C 233.605469 392.695312 233.707031 392.722656 233.808594 392.722656 C 233.910156 392.722656 234.011719 392.695312 234.113281 392.644531 C 234.441406 392.441406 234.417969 392.136719 234.390625 391.933594 C 234.390625 391.855469 234.367188 391.78125 234.339844 391.730469 C 234.265625 391.222656 234.164062 390.101562 234.214844 389.644531 C 234.339844 388.375 234.59375 387.105469 234.851562 386.011719 C 235.664062 382.429688 236.808594 378.589844 238.359375 374.347656 L 238.511719 373.914062 C 241.738281 364.917969 248.476562 346.191406 258.875 343.828125 C 261.339844 343.242188 263.832031 345.019531 266.246094 346.722656 C 269.070312 348.707031 272.019531 350.765625 274.890625 348.960938 C 279.441406 346.113281 281.5 338.972656 283.15625 333.230469 C 283.613281 331.628906 284.042969 330.105469 284.5 328.832031 C 284.601562 328.527344 284.707031 328.199219 284.832031 327.84375 C 285.644531 325.328125 286.890625 321.539062 289.332031 321.210938 C 291.265625 321.007812 293.019531 322.226562 294.875 323.546875 C 296.753906 324.867188 298.6875 326.242188 301 326.242188 C 301.027344 326.242188 301.078125 326.242188 301.101562 326.242188 C 304.535156 326.191406 306.492188 323.699219 308.398438 321.285156 C 309.898438 319.355469 311.324219 317.523438 313.460938 316.863281 C 317.578125 315.566406 321.671875 316.078125 325.664062 316.558594 C 331.585938 317.296875 337.738281 318.058594 343.867188 312.746094 C 345.746094 311.121094 349.738281 305.226562 350.933594 300.117188 C 358.636719 297.675781 366.746094 291.605469 372.085938 287.589844 L 372.339844 287.386719 C 373.027344 286.878906 373.789062 286.191406 374.601562 285.480469 C 376.585938 283.675781 378.847656 281.640625 380.90625 281.261719 C 381.210938 281.210938 381.441406 280.90625 381.390625 280.601562 C 381.339844 280.269531 381.035156 280.066406 380.703125 280.117188 Z M 232.359375 322.402344 C 231.75 324.285156 230.019531 328.324219 228.542969 328.859375 C 228.289062 328.960938 228.085938 328.933594 227.859375 328.78125 C 226.765625 328.046875 226.890625 325.554688 228.238281 321.335938 L 228.289062 321.160156 C 229.511719 317.347656 231.265625 313.867188 233.375 310.941406 C 233.554688 315.617188 233.019531 320.394531 232.359375 322.402344 Z M 234.492188 309.496094 C 236.222656 307.386719 238.15625 305.632812 240.238281 304.308594 C 242.300781 303.015625 244.382812 302.9375 246.570312 302.863281 C 248.453125 302.8125 250.382812 302.734375 252.214844 301.820312 C 254.273438 300.777344 255.59375 299.125 256.867188 297.523438 C 258.59375 295.363281 260.222656 293.304688 263.578125 292.949219 C 266.296875 292.644531 269.070312 293.535156 271.714844 294.375 C 274.789062 295.3125 277.941406 296.304688 281.222656 295.644531 C 286.28125 294.628906 289.152344 290.15625 291.925781 285.808594 C 293.832031 282.863281 295.789062 279.785156 298.410156 278.035156 C 301.6875 275.824219 305.933594 274.984375 310.027344 274.171875 C 312.035156 273.765625 314.121094 273.359375 316 272.796875 C 323.753906 270.484375 330.875 266.648438 337.789062 261.109375 C 344.347656 255.847656 350.019531 250.207031 354.621094 244.335938 C 354.695312 244.261719 360.492188 235.339844 359.347656 233.890625 C 359.222656 233.738281 358.863281 233.382812 358.179688 233.738281 C 357.875 233.867188 357.796875 234.195312 357.925781 234.5 C 358 234.652344 358.179688 234.753906 358.355469 234.804688 C 357.949219 236.535156 354.289062 242.863281 353.703125 243.597656 C 349.152344 249.394531 343.535156 254.984375 337.050781 260.195312 C 330.265625 265.632812 323.273438 269.394531 315.671875 271.679688 C 313.839844 272.214844 311.882812 272.621094 309.796875 273.027344 C 305.578125 273.867188 301.230469 274.730469 297.773438 277.042969 C 294.949219 278.949219 292.917969 282.125 290.933594 285.175781 C 288.1875 289.496094 285.570312 293.5625 280.992188 294.5 C 278.019531 295.109375 275.121094 294.195312 272.070312 293.253906 C 269.296875 292.390625 266.425781 291.476562 263.453125 291.808594 C 259.613281 292.214844 257.757812 294.527344 255.953125 296.789062 C 254.707031 298.363281 253.511719 299.835938 251.679688 300.753906 C 250.078125 301.566406 248.375 301.640625 246.542969 301.691406 C 244.28125 301.769531 241.941406 301.871094 239.605469 303.320312 C 237.722656 304.511719 235.96875 306.039062 234.339844 307.867188 C 233.933594 304.308594 232.992188 301.058594 231.113281 299.304688 C 229.5625 297.878906 227.578125 297.625 225.214844 298.59375 C 219.085938 301.109375 215.222656 309.648438 212.679688 315.289062 L 212.199219 316.355469 C 207.339844 326.976562 203.679688 338.363281 200.121094 349.367188 C 199.28125 351.957031 198.445312 354.550781 197.605469 357.144531 C 197.121094 358.539062 196.511719 360.117188 195.875 361.792969 C 194.070312 366.417969 192.011719 371.679688 192.136719 376.074219 C 192.136719 376.378906 192.394531 376.632812 192.722656 376.632812 C 193.003906 376.582031 193.308594 376.355469 193.308594 376.023438 C 193.179688 371.882812 195.1875 366.75 196.96875 362.199219 C 197.628906 360.523438 198.238281 358.949219 198.722656 357.5 C 199.5625 354.933594 200.402344 352.316406 201.238281 349.722656 C 204.773438 338.746094 208.433594 327.410156 213.265625 316.839844 L 213.75 315.769531 C 216.214844 310.28125 219.976562 302.023438 225.671875 299.683594 C 227.605469 298.898438 229.105469 299.050781 230.324219 300.167969 C 232.105469 301.792969 232.96875 305.328125 233.273438 309.136719 C 230.679688 312.390625 228.597656 316.382812 227.171875 320.804688 L 227.121094 320.957031 C 226.433594 323.117188 224.808594 328.171875 227.222656 329.75 C 227.757812 330.105469 228.339844 330.179688 228.925781 329.976562 C 231.417969 329.085938 233.402344 323.015625 233.476562 322.761719 C 234.0625 320.957031 234.851562 315.085938 234.492188 309.496094 " fill-opacity="1" fill-rule="nonzero"/></svg>