<svg xmlns="http://www.w3.org/2000/svg" xmlns:xlink="http://www.w3.org/1999/xlink" width="800" zoomAndPan="magnify" viewBox="0 0 600 599.999999" height="800" preserveAspectRatio="xMidYMid meet" version="1.0"><defs><clipPath id="48efd32738"><path d="M 78 364 L 229 364 L 229 584.21875 L 78 584.21875 Z M 78 364 " clip-rule="nonzero"/></clipPath></defs><path fill="#73a892" d="M 357 434.480469 C 352.652344 413.707031 353.109375 383.09375 358.371094 342.636719 C 358.371094 342.621094 358.375 342.605469 358.378906 342.589844 C 363.234375 308.894531 371.417969 277.800781 382.929688 249.308594 L 382.925781 249.3125 C 406.476562 190.902344 444.066406 138.597656 495.699219 92.398438 C 497.058594 91.179688 499.152344 91.292969 500.371094 92.65625 C 501.59375 94.015625 501.476562 96.109375 500.113281 97.328125 C 449.25 142.84375 412.234375 194.328125 389.066406 251.785156 C 377.757812 279.78125 369.710938 310.363281 364.929688 343.535156 L 364.9375 343.488281 C 359.769531 383.203125 359.285156 413.082031 363.480469 433.125 C 363.855469 434.914062 362.707031 436.667969 360.917969 437.039062 C 359.128906 437.414062 357.375 436.269531 357 434.480469 Z M 357 434.480469 " fill-opacity="1" fill-rule="nonzero"/><path fill="#73a892" d="M 157.898438 53.316406 C 211.34375 106.5625 232.570312 212.957031 221.574219 372.503906 C 221.449219 374.328125 219.867188 375.703125 218.042969 375.578125 C 216.21875 375.453125 214.84375 373.871094 214.96875 372.050781 C 225.828125 214.507812 205.246094 109.828125 153.226562 58.003906 C 151.929688 56.714844 151.925781 54.621094 153.21875 53.324219 C 154.507812 52.03125 156.605469 52.027344 157.898438 53.316406 Z M 157.898438 53.316406 " fill-opacity="1" fill-rule="nonzero"/><path fill="#73a892" d="M 91.273438 109.269531 C 123.914062 135.976562 149.441406 172.921875 167.859375 220.105469 L 167.847656 220.074219 C 186.933594 267.558594 197.121094 321.675781 198.410156 382.425781 C 198.449219 384.253906 197 385.765625 195.171875 385.804688 C 193.34375 385.84375 191.832031 384.394531 191.792969 382.566406 C 190.519531 322.621094 180.492188 269.28125 161.703125 222.542969 C 161.699219 222.53125 161.695312 222.523438 161.691406 222.511719 C 143.695312 176.40625 118.824219 140.363281 87.078125 114.390625 C 85.664062 113.230469 85.457031 111.148438 86.617188 109.734375 C 87.773438 108.320312 89.859375 108.113281 91.273438 109.269531 Z M 91.273438 109.269531 " fill-opacity="1" fill-rule="nonzero"/><path fill="#73a892" d="M 344.117188 442.707031 C 343.457031 427.734375 352.976562 410.722656 372.679688 391.664062 C 372.695312 391.648438 372.710938 391.636719 372.726562 391.621094 C 380.3125 384.5625 389.25 377.800781 399.535156 371.335938 C 399.613281 371.285156 399.695312 371.238281 399.777344 371.195312 C 446.996094 346.839844 476.332031 329.65625 487.785156 319.640625 C 487.84375 319.585938 487.90625 319.539062 487.96875 319.488281 C 504.125 307.304688 516.773438 291.675781 525.917969 272.609375 C 526.710938 270.960938 528.6875 270.265625 530.335938 271.058594 C 531.984375 271.847656 532.679688 273.824219 531.890625 275.472656 C 522.277344 295.503906 508.96875 311.9375 491.957031 324.769531 L 492.144531 324.621094 C 480.289062 334.992188 450.511719 352.476562 402.816406 377.078125 L 403.058594 376.9375 C 393.125 383.183594 384.519531 389.691406 377.234375 396.464844 L 377.28125 396.421875 C 359.007812 414.097656 350.160156 429.425781 350.734375 442.414062 C 350.8125 444.238281 349.398438 445.785156 347.570312 445.863281 C 345.746094 445.945312 344.199219 444.53125 344.117188 442.707031 Z M 344.117188 442.707031 " fill-opacity="1" fill-rule="nonzero"/><path fill="#73a892" d="M 186.074219 99.648438 C 179.039062 99.625 171.417969 95.710938 163.207031 87.90625 C 150.746094 75.523438 142.597656 64.453125 138.761719 54.703125 C 135.757812 47.0625 136.777344 41.136719 141.820312 36.925781 C 147.09375 33.332031 153.851562 33.472656 162.101562 37.347656 C 181.710938 49.304688 189.894531 70.167969 186.644531 99.941406 Z M 186.074219 99.648438 " fill-opacity="1" fill-rule="nonzero"/><path fill="#73a892" d="M 202.53125 140.054688 C 201.847656 121.558594 207.117188 107.710938 218.347656 98.507812 C 225.394531 93.765625 230.429688 92.386719 233.453125 94.375 C 240.230469 99.527344 242.828125 104.96875 241.25 110.6875 C 240.230469 114.644531 235.75 119.699219 227.804688 125.851562 C 222.488281 130.128906 215.386719 133.882812 206.496094 137.105469 Z M 202.53125 140.054688 " fill-opacity="1" fill-rule="nonzero"/><path fill="#73a892" d="M 201.511719 139.578125 C 194.210938 145.542969 185.917969 147.601562 176.636719 145.753906 C 161.757812 141.523438 150.464844 135.34375 142.753906 127.214844 C 138.589844 121.996094 138.40625 117.726562 142.195312 114.414062 C 147.328125 111.226562 154.234375 110.386719 162.910156 111.890625 C 169.59375 113.167969 176.714844 116.390625 184.285156 121.5625 C 191.894531 127.015625 197.371094 132.703125 200.714844 138.625 Z M 201.511719 139.578125 " fill-opacity="1" fill-rule="nonzero"/><path fill="#73a892" d="M 212.519531 174.25 C 212.039062 171.355469 213.886719 167.011719 218.058594 161.214844 C 221.894531 156.214844 226.675781 151.96875 232.40625 148.484375 C 243.277344 141.84375 252.523438 140.808594 260.140625 145.378906 C 263.601562 148.273438 264.613281 152.15625 263.167969 157.019531 C 261.664062 161.480469 258.070312 165.585938 252.382812 169.335938 C 241.445312 176.171875 228.601562 178.15625 213.859375 175.289062 Z M 212.519531 174.25 " fill-opacity="1" fill-rule="nonzero"/><path fill="#73a892" d="M 212.148438 175.871094 C 207.054688 181.980469 198.175781 183.714844 185.507812 181.078125 C 170.179688 177.421875 161.035156 171.960938 158.066406 164.695312 C 156.898438 160.503906 158.542969 156.914062 162.992188 153.925781 C 166.925781 151.417969 172.199219 150.660156 178.820312 151.648438 C 185.644531 152.820312 192.175781 155.449219 198.417969 159.535156 C 205.800781 164.738281 210.101562 169.28125 211.320312 173.164062 Z M 212.148438 175.871094 " fill-opacity="1" fill-rule="nonzero"/><path fill="#73a892" d="M 115.5 138.269531 C 109.605469 141 101.117188 138.027344 90.042969 129.351562 C 77.28125 118.792969 68.703125 108.316406 64.308594 97.914062 C 61.433594 90.390625 62.367188 85.335938 67.113281 82.742188 C 72.585938 80.476562 79.054688 81.757812 86.515625 86.585938 C 96.453125 92.972656 105.238281 107.996094 112.875 131.65625 Z M 115.5 138.269531 " fill-opacity="1" fill-rule="nonzero"/><path fill="#73a892" d="M 143.554688 183.367188 C 137.683594 186.269531 133.390625 187.890625 130.671875 188.222656 C 126.867188 188.851562 122.355469 188.722656 117.132812 187.839844 C 102.609375 184.730469 93.234375 180.101562 89.011719 173.945312 C 86.921875 170.269531 87.582031 167.089844 90.992188 164.40625 C 94.433594 162.027344 99.296875 161.265625 105.585938 162.121094 C 109.863281 162.746094 114.511719 164.425781 119.53125 167.164062 C 128.839844 172.476562 136.601562 177.460938 142.8125 182.113281 Z M 143.554688 183.367188 " fill-opacity="1" fill-rule="nonzero"/><path fill="#73a892" d="M 143.308594 183.996094 C 139.976562 177.996094 139.46875 169.648438 141.792969 158.960938 C 144.300781 148.808594 148.574219 140.667969 154.609375 134.539062 C 161.28125 127.714844 166.269531 124.914062 169.570312 126.136719 C 175.222656 128.621094 177.855469 133.058594 177.464844 139.441406 C 174.960938 153.359375 166.246094 165.476562 151.324219 175.800781 Z M 143.308594 183.996094 " fill-opacity="1" fill-rule="nonzero"/><path fill="#73a892" d="M 171.289062 232.777344 C 167.214844 236.511719 161.929688 238.789062 155.433594 239.609375 C 146.792969 240.726562 138.167969 240.398438 129.5625 238.625 C 114.582031 235.378906 106.875 228.777344 106.429688 218.8125 C 106.738281 213.554688 109.28125 209.789062 114.058594 207.511719 C 119.269531 205.144531 125.585938 204.679688 133.011719 206.109375 C 145.664062 208.234375 158.429688 216.710938 171.308594 231.53125 Z M 171.289062 232.777344 " fill-opacity="1" fill-rule="nonzero"/><path fill="#73a892" d="M 164.78125 237.660156 C 162.25 233.808594 161.445312 228.640625 162.363281 222.15625 C 163.421875 215.675781 166.007812 209.71875 170.117188 204.289062 C 174.324219 198.6875 179.582031 194.390625 185.894531 191.40625 C 192.460938 188.414062 197.570312 187.929688 201.214844 189.945312 C 206.796875 194.121094 206.441406 201.191406 200.140625 211.152344 C 194.609375 219.800781 183.910156 229.25 168.050781 239.492188 Z M 164.78125 237.660156 " fill-opacity="1" fill-rule="nonzero"/><path fill="#73a892" d="M 399.046875 219.796875 C 387.003906 214.773438 378.367188 206.925781 373.136719 196.257812 C 367.351562 184.230469 366.296875 172.457031 369.976562 160.941406 C 372.238281 155.332031 375.511719 152.5625 379.792969 152.632812 C 384.191406 153.316406 388.070312 156.628906 391.4375 162.578125 C 394.152344 167.582031 396.324219 174.996094 397.949219 184.820312 C 400.292969 198.890625 401.117188 209.40625 400.421875 216.375 Z M 399.046875 219.796875 " fill-opacity="1" fill-rule="nonzero"/><path fill="#73a892" d="M 401.746094 216.859375 C 404.34375 214.207031 410.578125 211.960938 420.445312 210.117188 C 428.78125 208.820312 436.941406 208.726562 444.929688 209.832031 C 461.183594 212.449219 471.566406 218.308594 476.078125 227.414062 C 475.285156 236.882812 468.28125 241.371094 455.070312 240.871094 C 434.507812 238.65625 417.1875 232.75 403.113281 223.152344 Z M 401.746094 216.859375 " fill-opacity="1" fill-rule="nonzero"/><path fill="#73a892" d="M 417.546875 186.535156 C 411.4375 183.019531 407.011719 174.949219 404.269531 162.316406 C 401.882812 150.3125 402.265625 139.367188 405.421875 129.476562 C 409.039062 119.285156 413.898438 112.414062 420.003906 108.867188 C 426.410156 105.4375 430.9375 106.777344 433.578125 112.890625 C 435.8125 118.785156 435.828125 127.890625 433.621094 140.203125 C 431.730469 150.371094 427.980469 160.910156 422.375 171.820312 Z M 417.546875 186.535156 " fill-opacity="1" fill-rule="nonzero"/><path fill="#73a892" d="M 420.023438 183.878906 C 421.394531 181.21875 426.523438 177.964844 435.414062 174.109375 C 446.34375 169.394531 456.269531 166.097656 465.191406 164.207031 C 485.441406 160.539062 498.589844 161.214844 504.640625 166.238281 C 508.378906 170.292969 508.234375 175.382812 504.21875 181.507812 C 500.265625 186.375 493.597656 190.042969 484.210938 192.507812 C 461.59375 197.601562 441.40625 195.882812 423.644531 187.351562 Z M 420.023438 183.878906 " fill-opacity="1" fill-rule="nonzero"/><path fill="#73a892" d="M 454.175781 132.902344 C 456.144531 116.632812 466.132812 98.878906 484.144531 79.640625 C 502.105469 62.429688 518.550781 54.230469 533.484375 55.039062 C 541.421875 56.566406 545.050781 61.835938 544.378906 70.855469 C 543.339844 79.289062 537.953125 88.789062 528.214844 99.359375 C 515.605469 113.761719 492.125 125.125 457.773438 133.445312 Z M 454.175781 132.902344 " fill-opacity="1" fill-rule="nonzero"/><path fill="#73a892" d="M 499.46875 312.839844 C 507.59375 263.457031 521.023438 238.425781 539.757812 237.742188 C 546.175781 237.839844 550.21875 241.113281 551.882812 247.5625 C 553.457031 254.164062 552.15625 261.761719 547.976562 270.355469 C 537.375 288.585938 522.152344 302.730469 502.3125 312.792969 Z M 499.46875 312.839844 " fill-opacity="1" fill-rule="nonzero"/><path fill="#73a892" d="M 455.578125 344.070312 C 452.707031 342.203125 450.101562 337.179688 447.765625 328.988281 C 445.992188 321.953125 445.625 315.253906 446.667969 308.890625 C 450.179688 291.976562 456.789062 279.886719 466.5 272.625 C 472.675781 268.785156 477.75 268.550781 481.71875 271.929688 C 485.398438 275.390625 486.402344 281.113281 484.730469 289.097656 C 478.28125 310.492188 466.707031 330.054688 450.011719 347.785156 Z M 455.578125 344.070312 " fill-opacity="1" fill-rule="nonzero"/><path fill="#73a892" d="M 450.546875 346.496094 C 455.671875 344.121094 465.617188 343.183594 480.375 343.691406 C 490.898438 344.324219 499.722656 346.300781 506.84375 349.621094 C 514.015625 353.148438 518.648438 357.535156 520.742188 362.785156 C 522.328125 369.363281 520.710938 374.257812 515.902344 377.46875 C 510.8125 380.648438 503.699219 380.609375 494.5625 377.355469 C 491.574219 376.277344 488.277344 374.757812 484.675781 372.796875 C 467.589844 362.714844 458.601562 357.566406 457.714844 357.355469 C 453.179688 355.039062 448.34375 353.015625 443.195312 351.292969 Z M 450.546875 346.496094 " fill-opacity="1" fill-rule="nonzero"/><path fill="#fef0e8" d="M 247.117188 193.550781 L 252.992188 172.386719 C 265.894531 125.757812 274.976562 94.417969 280.230469 78.367188 C 285.40625 62.671875 289.761719 52.171875 293.300781 46.863281 C 315.726562 45.457031 358.914062 52.867188 422.863281 69.097656 C 407.050781 100.109375 396.105469 124.25 390.035156 141.523438 C 383.636719 158.484375 375.871094 185.695312 366.746094 223.15625 L 247.117188 193.550781 " fill-opacity="1" fill-rule="nonzero"/><path fill="#5c4e4e" d="M 299.613281 61.605469 L 267.28125 171.359375 L 360.089844 192.1875 C 365.808594 161.4375 369.945312 143.066406 372.507812 137.070312 C 375.949219 126.09375 384.535156 107.058594 398.265625 79.960938 C 374.71875 73.722656 357.507812 69.636719 346.625 67.703125 C 335.585938 65.558594 319.914062 63.523438 299.613281 61.605469 " fill-opacity="1" fill-rule="nonzero"/><path fill="#eec2ac" d="M 146.382812 583.378906 L 222.324219 583.21875 C 220.242188 574.078125 219.898438 567.898438 221.289062 564.679688 C 221.945312 562.449219 222.871094 560.238281 224.070312 558.046875 C 231.304688 546.054688 235.214844 538.902344 235.804688 536.597656 C 237.554688 531.902344 238.351562 527.347656 238.195312 522.941406 C 239.253906 517.148438 234.453125 497.042969 223.792969 462.621094 L 161.664062 447.136719 L 146.382812 583.378906 " fill-opacity="1" fill-rule="nonzero"/><path fill="#e4e4e4" d="M 200.515625 198.195312 L 198.808594 198.542969 C 190.324219 198.585938 182.730469 206.65625 176.035156 222.753906 C 172.371094 231.882812 168.65625 242.84375 164.882812 255.632812 C 153.175781 293.890625 146.964844 315.949219 146.25 321.8125 C 138.113281 368.371094 139.496094 401.746094 150.398438 421.933594 C 154.339844 429.441406 159.628906 435.550781 166.265625 440.257812 C 176.429688 447.167969 187.839844 452.140625 200.503906 455.179688 C 218.085938 459.902344 255.339844 466.714844 312.265625 475.609375 C 332.859375 478.296875 346.90625 478.484375 354.402344 476.171875 C 373.46875 472.398438 386.964844 459.644531 394.890625 437.90625 C 396.71875 420.003906 399.195312 403.863281 402.3125 389.476562 C 411.0625 359 416.839844 334.191406 419.648438 315.054688 C 421.710938 299.605469 422.6875 282.105469 422.574219 262.546875 C 425.0625 257.265625 426.347656 252.4375 426.429688 248.058594 C 426.457031 238.835938 425.089844 231.664062 422.332031 226.539062 C 420.917969 223.660156 418.148438 221.335938 414.015625 219.574219 C 409.808594 217.8125 401.230469 215.515625 388.277344 212.683594 C 357.988281 206.375 307.742188 197.078125 237.539062 184.792969 C 228.355469 183.523438 221.996094 183.609375 218.457031 185.054688 C 216.488281 184.933594 210.507812 189.3125 200.515625 198.195312 " fill-opacity="1" fill-rule="nonzero"/><path fill="#5c4e4e" d="M 329.929688 381.453125 C 325.382812 421.480469 289.234375 450.25 249.183594 445.703125 C 209.136719 441.160156 180.355469 405.027344 184.902344 364.996094 C 189.445312 324.96875 225.597656 296.203125 265.648438 300.746094 C 305.695312 305.289062 334.476562 341.421875 329.929688 381.453125 M 326.550781 381.070312 C 330.882812 342.90625 303.445312 308.457031 265.261719 304.125 C 227.082031 299.792969 192.613281 327.21875 188.28125 365.378906 C 183.945312 403.542969 211.386719 437.992188 249.566406 442.324219 C 287.75 446.65625 322.214844 419.230469 326.550781 381.070312 Z M 326.550781 381.070312 " fill-opacity="1" fill-rule="nonzero"/><path fill="#5c4e4e" d="M 309.671875 375.464844 C 309.707031 405.140625 285.667969 429.226562 255.976562 429.261719 C 226.289062 429.296875 202.191406 405.269531 202.15625 375.59375 C 202.121094 345.917969 226.160156 321.832031 255.851562 321.796875 C 285.539062 321.761719 309.636719 345.789062 309.671875 375.464844 M 306.269531 375.46875 C 306.238281 347.671875 283.664062 325.164062 255.855469 325.199219 C 228.042969 325.230469 205.527344 347.792969 205.558594 375.589844 C 205.59375 403.386719 228.164062 425.894531 255.972656 425.859375 C 283.785156 425.828125 306.300781 403.265625 306.269531 375.46875 Z M 306.269531 375.46875 " fill-opacity="1" fill-rule="nonzero"/><path fill="#5c4e4e" d="M 276.585938 378.25 L 275.65625 381.324219 C 273.207031 387.382812 269.128906 391.742188 263.425781 394.394531 C 257.691406 397.039062 251.609375 397.246094 245.179688 395.011719 C 239.117188 392.5625 234.757812 388.488281 232.101562 382.789062 C 231.253906 380.949219 230.652344 379.019531 230.292969 376.996094 L 229.964844 373.929688 C 229.875 371.851562 230.070312 369.75 230.554688 367.625 C 232.226562 361.144531 235.726562 356.242188 241.054688 352.914062 C 246.382812 349.585938 252.328125 348.59375 258.886719 349.933594 C 265.367188 351.601562 270.273438 355.101562 273.605469 360.429688 C 276.933594 365.753906 277.925781 371.695312 276.585938 378.25 " fill-opacity="1" fill-rule="nonzero"/><path fill="#5c4e4e" d="M 168.433594 240.378906 C 149.179688 262.109375 130.835938 282.894531 125.183594 295.691406 C 122.707031 301.304688 122.789062 305.214844 122.898438 309.808594 C 123.019531 314.679688 123.164062 320.222656 119.855469 327.722656 C 119.597656 328.304688 119.320312 328.894531 119.023438 329.496094 C 115.945312 335.726562 110.464844 343.320312 104.902344 351.054688 C 98.207031 360.367188 91.207031 370.113281 86.703125 379.230469 C 85.652344 381.351562 84.753906 383.410156 84.035156 385.386719 C 80.234375 395.839844 81.046875 405.03125 82.003906 415.25 C 82.636719 421.976562 83.328125 429.234375 82.394531 437.03125 C 81.464844 444.761719 78.949219 452.882812 76.515625 460.789062 C 73.851562 469.429688 71.246094 477.9375 70.226562 486.433594 C 69.820312 489.804688 69.671875 493.136719 69.871094 496.425781 C 70.777344 511.5 77.699219 520.824219 80.695312 520.824219 C 81.269531 520.824219 83.84375 520.207031 86.925781 512.746094 C 94.023438 495.570312 99 453.613281 103.195312 417.925781 C 104.601562 405.9375 105.917969 394.746094 107.191406 385.683594 C 112.144531 350.460938 116.574219 345.882812 123.054688 342.464844 L 121.238281 344.304688 C 128.683594 329.757812 136.015625 315.433594 142.609375 297.582031 C 149.226562 279.671875 155.128906 258.160156 161.089844 236.40625 L 168.433594 240.378906 M 162.015625 234.699219 C 163.335938 233.207031 165.511719 232.824219 167.265625 233.773438 C 169.019531 234.71875 169.886719 236.75 169.359375 238.671875 C 163.421875 260.324219 157.425781 282.222656 150.652344 300.550781 C 143.859375 318.9375 136.304688 333.679688 128.871094 348.207031 C 128.46875 348.992188 127.835938 349.632812 127.054688 350.042969 C 124.902344 351.179688 120.703125 351.152344 115.679688 386.875 C 114.421875 395.820312 113.121094 406.90625 111.707031 418.925781 C 107.605469 453.835938 102.527344 497.433594 94.851562 516.015625 C 91.628906 523.820312 87.039062 529.394531 80.695312 529.394531 C 68.882812 529.394531 62.121094 510.363281 61.3125 496.9375 C 61.078125 493.054688 61.257812 489.199219 61.714844 485.414062 C 62.839844 476.019531 65.703125 466.773438 68.320312 458.269531 C 70.8125 450.175781 73.0625 442.828125 73.882812 436.011719 C 74.691406 429.257812 74.109375 422.882812 73.46875 416.046875 C 72.523438 405.925781 71.445312 394.929688 75.976562 382.460938 C 76.824219 380.128906 77.855469 377.78125 79.015625 375.433594 C 83.898438 365.558594 91.355469 355.210938 97.941406 346.050781 C 103.675781 338.082031 108.644531 331.148438 111.339844 325.699219 C 111.582031 325.207031 111.804688 324.726562 112.011719 324.261719 C 114.523438 318.570312 114.441406 314.621094 114.328125 310.015625 C 114.210938 305.164062 114.066406 299.65625 117.34375 292.234375 C 123.683594 277.875 143.304688 255.8125 162.015625 234.699219 Z M 162.015625 234.699219 " fill-opacity="1" fill-rule="nonzero"/><path fill="#e4e4e4" d="M 166.441406 253.253906 L 165.160156 252.429688 C 160.339844 249.460938 157.285156 246.636719 155.984375 243.960938 C 155.214844 242.4375 154.875 240.738281 154.972656 238.855469 C 155.082031 236.960938 155.53125 235.082031 156.316406 233.21875 C 157.105469 231.355469 158.113281 229.730469 159.339844 228.339844 C 160.480469 226.996094 161.898438 226.019531 163.59375 225.40625 C 166.175781 224.476562 170.027344 224.761719 175.152344 226.253906 L 166.441406 253.253906 " fill-opacity="1" fill-rule="nonzero"/><path fill="#5c4e4e" d="M 237.464844 305.28125 L 235.40625 304.027344 C 242.601562 300.3125 250.003906 296.488281 261.347656 295.59375 C 263.023438 295.460938 264.78125 295.394531 266.613281 295.394531 C 277.09375 295.394531 289.929688 297.628906 302.558594 302.902344 C 317.390625 309.097656 331.957031 319.503906 342.839844 334.53125 C 353.691406 349.515625 360.953125 369.214844 358.03125 388.070312 C 355.117188 406.910156 342.066406 424.6875 325.058594 434.285156 C 308.0625 443.878906 287.148438 445.269531 266.65625 446.65625 C 265.878906 446.710938 265.207031 446.121094 265.152344 445.34375 C 265.101562 444.566406 265.6875 443.890625 266.464844 443.839844 C 287.113281 442.441406 307.335938 441.046875 323.667969 431.828125 C 339.992188 422.613281 352.46875 405.550781 355.242188 387.640625 C 358.011719 369.746094 351.125 350.785156 340.550781 336.183594 C 330.011719 321.628906 315.878906 311.527344 301.46875 305.507812 C 289.1875 300.378906 276.722656 298.21875 266.613281 298.21875 C 264.851562 298.21875 263.167969 298.285156 261.566406 298.410156 C 250.832031 299.253906 243.867188 302.839844 236.699219 306.535156 C 236.261719 306.761719 235.738281 306.742188 235.316406 306.488281 C 234.898438 306.230469 234.640625 305.773438 234.640625 305.28125 C 234.640625 304.5 235.273438 303.867188 236.054688 303.867188 C 236.832031 303.867188 237.464844 304.5 237.464844 305.28125 Z M 237.464844 305.28125 " fill-opacity="1" fill-rule="nonzero"/><path fill="#5c4e4e" d="M 280.40625 239.292969 C 280.125 234.335938 279.675781 228.304688 282.382812 225.167969 C 284 223.292969 286.515625 222.613281 288.804688 222.613281 C 290.644531 222.613281 292.523438 223.042969 294.027344 223.832031 C 297.566406 225.675781 298.757812 229.28125 298.367188 232.464844 C 297.984375 235.601562 296.0625 238.40625 294.421875 240.84375 L 294.660156 240.023438 L 294.660156 240.050781 C 294.824219 246.683594 295.203125 254.992188 290.875 257.851562 C 289.640625 258.667969 288.148438 258.980469 286.675781 258.980469 C 282.765625 258.980469 277.941406 256.738281 276.167969 253.429688 C 273.683594 248.796875 277.683594 242.980469 280.632812 238.445312 L 280.40625 239.292969 M 283.226562 239.132812 C 283.246094 239.433594 283.167969 239.730469 283.003906 239.984375 C 279.554688 245.28125 277.15625 249.296875 278.660156 252.097656 C 279.808594 254.238281 283.492188 256.15625 286.675781 256.15625 C 287.78125 256.15625 288.679688 255.917969 289.316406 255.496094 C 291.988281 253.730469 292.023438 247.765625 291.835938 240.121094 L 291.835938 240.09375 C 291.828125 239.800781 291.914062 239.511719 292.078125 239.269531 C 293.816406 236.683594 295.277344 234.460938 295.5625 232.121094 C 295.84375 229.832031 294.988281 227.515625 292.71875 226.332031 C 291.660156 225.777344 290.238281 225.433594 288.804688 225.433594 C 286.96875 225.433594 285.402344 225.988281 284.523438 227.011719 C 282.75 229.066406 282.910156 233.5625 283.226562 239.132812 Z M 283.226562 239.132812 " fill-opacity="1" fill-rule="nonzero"/><path fill="#5c4e4e" d="M 292.167969 234.53125 L 292.058594 234.988281 C 291.761719 235.894531 291.226562 236.570312 290.453125 237.015625 C 289.671875 237.457031 288.824219 237.546875 287.910156 237.285156 C 287.046875 236.988281 286.410156 236.441406 285.996094 235.636719 C 285.867188 235.378906 285.765625 235.101562 285.703125 234.8125 L 285.632812 234.367188 C 285.605469 234.066406 285.617188 233.757812 285.667969 233.445312 C 285.855469 232.484375 286.304688 231.734375 287.023438 231.195312 C 287.742188 230.660156 288.5625 230.453125 289.488281 230.585938 C 290.40625 230.761719 291.113281 231.222656 291.617188 231.964844 C 292.121094 232.707031 292.304688 233.5625 292.167969 234.53125 " fill-opacity="1" fill-rule="nonzero"/><path fill="#5c4e4e" d="M 288.886719 249.3125 L 288.773438 249.765625 C 288.464844 250.671875 287.90625 251.339844 287.09375 251.773438 C 286.277344 252.207031 285.390625 252.285156 284.433594 252.007812 C 283.53125 251.699219 282.859375 251.140625 282.425781 250.328125 C 282.289062 250.066406 282.1875 249.789062 282.117188 249.5 L 282.042969 249.054688 C 282.015625 248.75 282.027344 248.441406 282.082031 248.128906 C 282.273438 247.167969 282.742188 246.425781 283.496094 245.894531 C 284.246094 245.367188 285.105469 245.175781 286.074219 245.316406 C 287.035156 245.511719 287.777344 245.980469 288.308594 246.734375 C 288.835938 247.484375 289.03125 248.34375 288.886719 249.3125 " fill-opacity="1" fill-rule="nonzero"/><path fill="#5c4e4e" d="M 206.800781 280.214844 C 205.300781 287.332031 198.316406 291.886719 191.195312 290.386719 C 184.078125 288.886719 179.519531 281.902344 181.019531 274.785156 C 182.519531 267.671875 189.507812 263.117188 196.628906 264.617188 C 203.746094 266.117188 208.300781 273.101562 206.800781 280.214844 M 204.039062 279.632812 C 205.214844 274.042969 201.636719 268.558594 196.046875 267.378906 C 190.453125 266.203125 184.964844 269.777344 183.785156 275.367188 C 182.605469 280.957031 186.183594 286.445312 191.777344 287.621094 C 197.371094 288.800781 202.859375 285.222656 204.039062 279.632812 Z M 204.039062 279.632812 " fill-opacity="1" fill-rule="nonzero"/><path fill="#5c4e4e" d="M 194.820312 214.375 L 186.328125 246.058594 L 185.199219 244.300781 L 207.554688 248.085938 L 205.929688 249.226562 L 211.683594 217.265625 L 212.828125 218.90625 L 193.207031 215.398438 L 194.820312 214.375 M 192.089844 213.644531 C 192.28125 212.9375 192.980469 212.492188 193.703125 212.621094 L 213.324219 216.125 C 213.691406 216.191406 214.019531 216.402344 214.234375 216.707031 C 214.449219 217.015625 214.53125 217.394531 214.464844 217.765625 L 208.707031 249.726562 C 208.570312 250.492188 207.847656 251 207.082031 250.871094 L 184.726562 247.085938 C 184.335938 247.019531 183.988281 246.789062 183.773438 246.457031 C 183.558594 246.121094 183.496094 245.710938 183.597656 245.328125 Z M 192.089844 213.644531 " fill-opacity="1" fill-rule="nonzero"/><path fill="#5c4e4e" d="M 198.136719 220.457031 L 196.070312 230.082031 L 194.007812 239.707031 C 198.648438 240.675781 203.292969 241.644531 207.9375 242.613281 C 209.039062 235.972656 210.140625 229.335938 211.242188 222.695312 C 206.875 221.949219 202.503906 221.203125 198.136719 220.457031 " fill-opacity="1" fill-rule="nonzero"/><path fill="#5c4e4e" d="M 194.699219 214.171875 L 199.820312 221.53125 L 197.5 223.144531 L 192.382812 215.785156 L 194.699219 214.171875 M 192.382812 215.785156 C 191.9375 215.144531 192.09375 214.265625 192.734375 213.820312 C 193.375 213.375 194.257812 213.53125 194.699219 214.171875 L 199.820312 221.53125 C 200.265625 222.171875 200.105469 223.050781 199.464844 223.496094 C 198.824219 223.941406 197.945312 223.78125 197.5 223.144531 Z M 192.382812 215.785156 " fill-opacity="1" fill-rule="nonzero"/><path fill="#5c4e4e" d="M 185.410156 243.175781 L 193.78125 237.878906 C 194.441406 237.460938 195.3125 237.65625 195.730469 238.316406 C 196.148438 238.976562 195.953125 239.847656 195.292969 240.265625 L 186.921875 245.5625 C 186.265625 245.980469 185.390625 245.785156 184.972656 245.125 C 184.554688 244.464844 184.753906 243.59375 185.410156 243.175781 Z M 185.410156 243.175781 " fill-opacity="1" fill-rule="nonzero"/><path fill="#5c4e4e" d="M 245.140625 202.90625 L 244.992188 202.949219 C 239.707031 204.851562 235.371094 210.40625 231.976562 219.613281 C 228.101562 229.855469 225.902344 241.6875 225.375 255.109375 C 225.40625 257.96875 225.8125 260.078125 226.59375 261.433594 C 226.851562 261.941406 227.171875 262.402344 227.554688 262.824219 C 227.691406 263.085938 228.371094 263.625 229.589844 264.449219 C 233.9375 266.746094 238.835938 267.101562 244.277344 265.511719 C 246.808594 264.730469 248.957031 263.460938 250.714844 261.710938 C 252.328125 259.738281 253.328125 258.328125 253.710938 257.476562 C 254.363281 256.316406 254.949219 255.121094 255.46875 253.886719 C 256.492188 251.40625 257.347656 248.84375 258.03125 246.199219 C 258.25 245.519531 259.363281 240.929688 261.371094 232.425781 C 261.992188 229.785156 262.488281 227.132812 262.863281 224.464844 C 263.214844 221.132812 263.359375 219.132812 263.285156 218.46875 C 263.253906 215.246094 262.992188 213.148438 262.5 212.179688 C 261.578125 209.878906 260.09375 207.90625 258.054688 206.265625 C 254.28125 203.363281 249.976562 202.242188 245.140625 202.90625 " fill-opacity="1" fill-rule="nonzero"/><g clip-path="url(#48efd32738)"><path fill="#eec2ac" d="M 201.613281 440.449219 L 202.46875 441.304688 C 209.117188 448.800781 215.378906 450.695312 221.253906 446.992188 C 229.457031 442.4375 230.65625 436.601562 224.859375 429.484375 C 193.09375 390.496094 167.605469 368.992188 148.394531 364.972656 C 145.9375 364.867188 143.300781 366.253906 140.484375 369.128906 C 129.949219 379.707031 118.167969 392.03125 105.144531 406.097656 C 92.226562 419.96875 84.363281 430.730469 81.554688 438.382812 C 79.039062 443.636719 77.992188 447.09375 78.414062 448.757812 C 78.476562 450.050781 80.75 452.265625 85.238281 455.410156 C 84.554688 460.730469 85.054688 465.058594 86.738281 468.390625 C 88.257812 471.082031 91.054688 474.128906 95.125 477.53125 C 92.617188 483.769531 92.460938 488.84375 94.660156 492.753906 C 95.617188 494.964844 97.292969 497.660156 99.6875 500.832031 L 119.222656 523.703125 C 121.480469 526.46875 123.195312 529.007812 124.363281 531.332031 C 125.53125 533.652344 126.519531 536.410156 127.328125 539.601562 C 131.105469 557.296875 133.320312 566.652344 133.964844 567.667969 C 135.964844 573.324219 138.09375 577.121094 140.34375 579.050781 C 141.265625 580.113281 143.320312 581.820312 146.515625 584.167969 L 182.679688 516.800781 C 192.21875 508.738281 198.292969 501.746094 200.902344 495.824219 C 203.550781 488.539062 202.09375 479.539062 196.523438 468.824219 C 200.535156 462.933594 202.753906 458.402344 203.179688 455.230469 C 203.886719 452.097656 203.363281 447.167969 201.613281 440.449219 " fill-opacity="1" fill-rule="nonzero"/></g><path fill="#eec2ac" d="M 395.507812 412.566406 L 394.871094 413.023438 C 392.132812 414.683594 389.71875 417.863281 387.632812 422.566406 L 378.785156 446.699219 L 368.757812 467.894531 C 366.988281 472.566406 366.046875 475.972656 365.9375 478.113281 C 364.246094 490.519531 369.253906 508.273438 380.957031 531.382812 L 371.570312 580.15625 L 459.945312 578.84375 C 454.695312 550.234375 452.097656 527.820312 452.152344 511.613281 C 452.273438 504.488281 452.921875 497.902344 454.097656 491.855469 C 454.664062 488.816406 455.304688 485.867188 456.011719 483.011719 C 460.941406 465.1875 463.417969 455.679688 463.4375 454.492188 C 464.5 449.101562 465.242188 443.621094 465.667969 438.046875 C 466.589844 426.765625 466.628906 409.84375 465.785156 387.28125 C 467.054688 382.179688 467.628906 378.265625 467.515625 375.539062 C 467.410156 372.003906 466.761719 368.734375 465.570312 365.71875 C 464.601562 363.023438 462.898438 360.753906 460.457031 358.90625 C 458.835938 357.5625 455.332031 356.089844 449.941406 354.492188 C 437.421875 344.257812 427.253906 336.550781 419.433594 331.371094 C 411.785156 326.15625 403.078125 321.929688 393.316406 318.6875 C 388.945312 317.296875 385.265625 316.808594 382.28125 317.226562 C 380.269531 317.0625 372.136719 319.851562 357.886719 325.597656 C 346.136719 323.878906 338.925781 324.046875 336.253906 326.105469 C 331.425781 330.878906 333.515625 336.382812 342.527344 342.621094 C 335.945312 342.960938 332.582031 344.007812 332.429688 345.761719 C 332.222656 347.179688 332.304688 348.148438 332.664062 348.671875 C 333.304688 350.304688 334.480469 352.140625 336.195312 354.183594 C 343.914062 364.191406 355.554688 368.496094 371.125 367.09375 C 358.316406 374.386719 352.308594 377.503906 353.105469 376.449219 C 352.738281 376.980469 347.195312 376.25 336.488281 374.246094 C 334.472656 374.125 333.070312 374.300781 332.28125 374.773438 C 328.683594 377.371094 328.257812 381.433594 331.015625 386.960938 C 335.265625 391.972656 341.703125 394.976562 350.324219 395.96875 C 356.847656 396.886719 362.140625 395.199219 366.203125 390.902344 C 371.089844 396.808594 374.761719 400.609375 377.222656 402.308594 C 380.300781 404.75 385.425781 406.703125 392.601562 408.171875 C 393.515625 408.625 394.695312 409.617188 396.132812 411.152344 L 395.507812 412.566406 " fill-opacity="1" fill-rule="nonzero"/><path fill="#eec2ac" d="M 96.621094 416.890625 L 96.425781 415.164062 C 95.503906 407.097656 94.203125 400.753906 92.519531 396.136719 C 92.285156 394.785156 89.003906 386.78125 82.679688 372.121094 C 81.355469 368.566406 80.671875 366.554688 80.628906 366.089844 C 79.679688 362.667969 79.789062 360 80.960938 358.085938 C 81.511719 356.503906 84.449219 354.300781 89.769531 351.46875 C 95.714844 348.359375 105.292969 343.960938 118.503906 338.261719 C 120.273438 333.785156 121.867188 330.683594 123.292969 328.957031 C 124.621094 327.140625 127.15625 324.933594 130.894531 322.328125 C 132.492188 313.640625 136.386719 306.523438 142.578125 300.980469 C 146.804688 298.019531 149.65625 300.472656 151.136719 308.335938 C 151.71875 312.855469 151.464844 318.292969 150.378906 324.640625 C 148.984375 332.609375 147.15625 339.011719 144.898438 343.851562 C 143.683594 348.402344 135.496094 357.746094 120.332031 371.878906 L 130.511719 387.582031 L 96.621094 416.890625 " fill-opacity="1" fill-rule="nonzero"/><path fill="#5c4e4e" d="M 95.546875 447.410156 L 94.714844 447.039062 C 105.859375 437.042969 117.019531 427.035156 125.648438 420.015625 C 132.054688 414.804688 137.070312 411.238281 141.523438 408.070312 C 143.070312 406.96875 144.558594 405.910156 146.003906 404.855469 C 146.46875 404.515625 146.914062 404.1875 147.371094 403.851562 C 147.824219 403.515625 148.257812 403.199219 148.710938 402.867188 C 153.292969 399.519531 157.839844 396.476562 163.011719 396.476562 C 163 396.476562 163.054688 396.476562 163.042969 396.476562 C 169.207031 396.492188 176.121094 400.820312 179.847656 406.183594 C 181.945312 409.199219 183.039062 412.542969 184.132812 415.890625 C 185 418.539062 185.875 421.195312 187.238281 423.785156 C 190.351562 429.683594 196.054688 435.28125 201.839844 440.953125 C 202.039062 441.144531 202.039062 441.460938 201.847656 441.65625 C 201.65625 441.855469 201.339844 441.855469 201.140625 441.664062 C 195.390625 436.027344 189.558594 430.316406 186.355469 424.25 C 184.945312 421.574219 184.050781 418.839844 183.1875 416.203125 C 182.082031 412.832031 181.03125 409.628906 179.03125 406.753906 C 175.441406 401.589844 168.804688 397.488281 163.039062 397.476562 C 163.027344 397.476562 163.023438 397.476562 163.011719 397.476562 C 158.210938 397.476562 153.917969 400.300781 149.296875 403.675781 C 148.84375 404.003906 148.421875 404.316406 147.960938 404.65625 C 147.5 404.996094 147.0625 405.316406 146.59375 405.660156 C 145.140625 406.722656 143.648438 407.78125 142.101562 408.882812 C 137.652344 412.046875 132.660156 415.601562 126.28125 420.789062 C 117.671875 427.792969 106.535156 437.78125 95.382812 447.78125 C 95.238281 447.914062 95.027344 447.945312 94.847656 447.867188 C 94.667969 447.785156 94.550781 447.609375 94.550781 447.410156 C 94.550781 447.136719 94.773438 446.910156 95.050781 446.910156 C 95.324219 446.910156 95.546875 447.136719 95.546875 447.410156 Z M 95.546875 447.410156 " fill-opacity="1" fill-rule="nonzero"/><path fill="#5c4e4e" d="M 96.230469 475.066406 L 95.425781 474.671875 C 98.5 472.273438 101.632812 469.820312 106.335938 468.300781 C 108.90625 467.46875 111.929688 466.917969 115.257812 466.3125 C 118.003906 465.8125 120.972656 465.273438 124.105469 464.503906 C 131.042969 462.800781 138.804688 459.976562 146.316406 455.722656 C 148.300781 454.597656 150.273438 453.371094 152.222656 452.160156 C 154.101562 450.992188 155.964844 449.832031 157.785156 448.800781 C 161.1875 446.875 164.5 445.359375 167.601562 445.054688 C 168 445.015625 168.394531 444.996094 168.785156 444.996094 C 174.753906 444.996094 179.78125 449.484375 185.390625 455.214844 C 191.394531 461.34375 198.339844 469.203125 201.011719 477.277344 C 203.691406 485.375 202.058594 493.625 199.796875 498.679688 C 197.90625 502.898438 195.5625 504.921875 193.15625 507 C 192.652344 507.4375 192.15625 507.863281 191.652344 508.324219 C 190.761719 509.132812 189.867188 510.019531 188.917969 510.953125 C 187.890625 511.964844 186.804688 513.039062 185.636719 514.101562 C 184.351562 515.269531 182.957031 516.433594 181.40625 517.523438 C 177.761719 520.078125 173.171875 522.261719 169.636719 522.261719 C 169.058594 522.261719 168.503906 522.203125 167.980469 522.074219 C 164.09375 521.128906 162.625 516.640625 164.027344 510.871094 C 165.441406 505.070312 169.796875 497.617188 174.089844 490.265625 C 174.230469 490.027344 174.535156 489.945312 174.773438 490.085938 C 175.011719 490.222656 175.09375 490.53125 174.953125 490.765625 C 170.628906 498.175781 166.367188 505.484375 164.996094 511.109375 C 163.621094 516.765625 165.207031 520.375 168.214844 521.105469 C 168.648438 521.210938 169.125 521.261719 169.636719 521.261719 C 172.855469 521.261719 177.234375 519.230469 180.832031 516.707031 C 182.339844 515.648438 183.703125 514.511719 184.964844 513.363281 C 186.117188 512.316406 187.1875 511.261719 188.21875 510.242188 C 189.160156 509.3125 190.074219 508.410156 190.980469 507.585938 C 191.496094 507.117188 192 506.679688 192.503906 506.246094 C 194.890625 504.183594 197.089844 502.28125 198.882812 498.273438 C 201.074219 493.382812 202.644531 485.394531 200.0625 477.59375 C 197.472656 469.761719 190.691406 462.050781 184.679688 455.910156 C 179.011719 450.121094 174.269531 445.992188 168.785156 445.992188 C 168.425781 445.992188 168.0625 446.011719 167.699219 446.046875 C 164.820312 446.332031 161.660156 447.753906 158.277344 449.671875 C 156.480469 450.6875 154.632812 451.835938 152.75 453.007812 C 150.804688 454.21875 148.816406 455.453125 146.808594 456.589844 C 139.207031 460.894531 131.359375 463.75 124.34375 465.472656 C 121.175781 466.25 118.179688 466.796875 115.433594 467.292969 C 112.089844 467.902344 109.136719 468.441406 106.644531 469.246094 C 102.128906 470.710938 99.113281 473.058594 96.039062 475.457031 C 95.886719 475.574219 95.683594 475.597656 95.511719 475.511719 C 95.339844 475.429688 95.230469 475.257812 95.230469 475.066406 C 95.230469 474.789062 95.457031 474.566406 95.730469 474.566406 C 96.007812 474.566406 96.230469 474.789062 96.230469 475.066406 Z M 96.230469 475.066406 " fill-opacity="1" fill-rule="nonzero"/><path fill="#5c4e4e" d="M 201.835938 440.605469 L 201.847656 440.640625 C 203.261719 445.21875 204.726562 449.953125 203.800781 454.558594 C 202.878906 459.15625 199.574219 463.566406 196.371094 467.855469 C 196.207031 468.074219 195.894531 468.121094 195.675781 467.957031 C 195.453125 467.789062 195.40625 467.476562 195.574219 467.257812 C 198.816406 462.914062 201.953125 458.695312 202.824219 454.363281 C 203.691406 450.050781 202.324219 445.570312 200.894531 440.933594 L 200.882812 440.902344 C 200.800781 440.636719 200.949219 440.359375 201.214844 440.277344 C 201.476562 440.195312 201.753906 440.34375 201.835938 440.605469 Z M 201.835938 440.605469 " fill-opacity="1" fill-rule="nonzero"/><path fill="#5c4e4e" d="M 96.945312 416.980469 L 96.082031 416.640625 C 106.226562 405.65625 116.375 394.667969 124.332031 386.136719 C 132.289062 377.605469 138.058594 371.527344 143.824219 365.449219 C 144.011719 365.25 144.328125 365.242188 144.527344 365.429688 C 144.730469 365.621094 144.738281 365.9375 144.546875 366.136719 C 138.78125 372.210938 133.015625 378.289062 125.0625 386.816406 C 117.105469 395.347656 106.960938 406.332031 96.816406 417.316406 C 96.675781 417.46875 96.457031 417.519531 96.265625 417.445312 C 96.074219 417.371094 95.949219 417.183594 95.949219 416.980469 C 95.949219 416.703125 96.171875 416.480469 96.449219 416.480469 C 96.722656 416.480469 96.945312 416.703125 96.945312 416.980469 Z M 96.945312 416.980469 " fill-opacity="1" fill-rule="nonzero"/><path fill="#5c4e4e" d="M 343.960938 342.886719 L 343.542969 342.394531 C 346.152344 342.824219 348.800781 343.257812 351.390625 343.691406 C 354.011719 344.128906 356.550781 344.558594 359.148438 345 L 358.878906 345.027344 C 362.835938 343.4375 366.816406 341.839844 370.941406 340.585938 C 375.066406 339.335938 379.332031 338.4375 383.335938 337.933594 C 384.898438 337.734375 386.433594 337.597656 387.953125 337.597656 C 390.320312 337.597656 392.644531 337.933594 394.96875 338.90625 C 397.273438 339.875 399.558594 341.46875 402.113281 343.246094 C 403.757812 344.390625 405.523438 345.621094 407.511719 346.84375 C 411.355469 349.207031 416.03125 351.546875 421.984375 354.53125 C 423.941406 355.511719 426.042969 356.5625 428.285156 357.703125 C 437.335938 362.296875 448.867188 368.394531 455.34375 372.941406 C 461.859375 377.511719 463.335938 380.566406 464.078125 383.058594 C 464.800781 385.488281 464.8125 387.300781 464.824219 389.058594 C 464.828125 389.335938 464.605469 389.558594 464.328125 389.5625 C 464.054688 389.5625 463.828125 389.339844 463.828125 389.066406 C 463.816406 387.320312 463.800781 385.628906 463.121094 383.339844 C 462.457031 381.113281 461.144531 378.230469 454.769531 373.757812 C 448.359375 369.257812 436.894531 363.191406 427.832031 358.589844 C 425.59375 357.453125 423.492188 356.402344 421.539062 355.421875 C 415.597656 352.445312 410.875 350.082031 406.988281 347.691406 C 404.972656 346.453125 403.1875 345.207031 401.542969 344.066406 C 398.960938 342.269531 396.769531 340.746094 394.582031 339.828125 C 392.410156 338.917969 390.222656 338.597656 387.953125 338.597656 C 386.492188 338.597656 385.003906 338.726562 383.460938 338.921875 C 379.515625 339.417969 375.304688 340.308594 371.230469 341.542969 C 367.15625 342.777344 363.214844 344.359375 359.25 345.953125 C 359.164062 345.988281 359.070312 345.996094 358.980469 345.980469 C 356.378906 345.542969 353.847656 345.113281 351.226562 344.675781 C 348.644531 344.242188 345.984375 343.804688 343.378906 343.378906 C 343.140625 343.339844 342.960938 343.128906 342.960938 342.886719 C 342.960938 342.609375 343.183594 342.386719 343.460938 342.386719 C 343.738281 342.386719 343.960938 342.609375 343.960938 342.886719 Z M 343.960938 342.886719 " fill-opacity="1" fill-rule="nonzero"/><path fill="#5c4e4e" d="M 371.515625 367.035156 L 370.765625 366.601562 C 373.375 365.074219 376.128906 363.449219 379.257812 363.449219 C 379.417969 363.449219 379.585938 363.453125 379.75 363.460938 C 383.078125 363.644531 386.738281 365.710938 391.636719 369.503906 C 396.558594 373.3125 402.828125 378.945312 409.078125 384.5625 L 408.976562 384.492188 C 414.683594 387.484375 420.375 390.46875 425.160156 392.65625 C 425.617188 392.863281 426.058594 393.0625 426.5 393.261719 C 426.914062 393.445312 427.339844 393.636719 427.738281 393.820312 C 431.359375 395.476562 434.417969 397.121094 436.257812 400.820312 C 437.5625 403.441406 438.234375 407.082031 438.96875 411.011719 C 439.488281 413.792969 440.039062 416.746094 440.859375 419.675781 C 442.84375 426.785156 446.40625 433.792969 450.003906 440.859375 C 450.128906 441.105469 450.03125 441.40625 449.785156 441.53125 C 449.539062 441.65625 449.238281 441.558594 449.113281 441.3125 C 445.527344 434.265625 441.914062 427.164062 439.898438 419.945312 C 439.066406 416.964844 438.507812 413.96875 437.988281 411.195312 C 437.246094 407.214844 436.589844 403.734375 435.363281 401.261719 C 433.691406 397.902344 430.929688 396.375 427.324219 394.726562 C 426.933594 394.550781 426.5 394.355469 426.089844 394.167969 C 425.648438 393.972656 425.203125 393.773438 424.746094 393.5625 C 419.929688 391.359375 414.210938 388.363281 408.515625 385.375 C 408.476562 385.355469 408.441406 385.332031 408.414062 385.304688 C 402.152344 379.679688 395.910156 374.074219 391.027344 370.292969 C 386.125 366.496094 382.683594 364.621094 379.695312 364.457031 C 379.546875 364.449219 379.402344 364.445312 379.257812 364.445312 C 376.445312 364.445312 373.929688 365.90625 371.269531 367.464844 C 371.113281 367.554688 370.925781 367.554688 370.769531 367.464844 C 370.613281 367.378906 370.519531 367.210938 370.519531 367.035156 C 370.519531 366.757812 370.742188 366.535156 371.015625 366.535156 C 371.292969 366.535156 371.515625 366.757812 371.515625 367.035156 Z M 371.515625 367.035156 " fill-opacity="1" fill-rule="nonzero"/><path fill="#5c4e4e" d="M 359.308594 325.875 L 358.597656 325.421875 C 366.492188 321.75 374.46875 318.039062 381.257812 316.78125 C 382.976562 316.464844 384.621094 316.300781 386.246094 316.300781 C 391.089844 316.300781 395.699219 317.742188 401.453125 320.679688 C 409.128906 324.601562 418.914062 331.234375 427.359375 337.121094 C 435.808594 343.007812 442.949219 348.171875 450.085938 353.328125 L 450.09375 353.332031 C 450.316406 353.496094 450.363281 353.808594 450.203125 354.03125 C 450.042969 354.253906 449.730469 354.304688 449.507812 354.140625 L 449.5 354.136719 C 442.363281 348.976562 435.230469 343.820312 426.789062 337.9375 C 418.335938 332.046875 408.605469 325.453125 401 321.570312 C 395.320312 318.667969 390.871094 317.300781 386.246094 317.300781 C 384.6875 317.300781 383.105469 317.453125 381.441406 317.761719 C 374.800781 318.992188 366.953125 322.636719 359.019531 326.328125 C 358.867188 326.398438 358.683594 326.386719 358.542969 326.292969 C 358.398438 326.203125 358.3125 326.042969 358.3125 325.875 C 358.3125 325.597656 358.535156 325.375 358.808594 325.375 C 359.085938 325.375 359.308594 325.597656 359.308594 325.875 Z M 359.308594 325.875 " fill-opacity="1" fill-rule="nonzero"/></svg>